<svg width="209" height="32" viewBox="0 0 209 32" fill="none" xmlns="http://www.w3.org/2000/svg">
<path d="M150.783 9.22119C151.69 9.22119 152.43 9.33349 153.002 9.56434C153.574 9.78894 154.022 10.1009 154.345 10.494C154.693 10.9057 154.942 11.436 155.11 12.0849C155.278 12.7338 155.353 13.6135 155.353 14.7178V23.4649C155.353 24.3758 155.508 24.9935 155.825 25.3179C156.136 25.6423 156.671 25.8045 157.429 25.8045V26.4846C157.019 26.4659 156.403 26.4347 155.583 26.4035C154.762 26.3723 153.954 26.3536 153.152 26.3536C152.349 26.3536 151.522 26.3723 150.739 26.4035C149.949 26.4347 149.353 26.4659 148.942 26.4846V25.8045C149.589 25.8045 150.043 25.6423 150.304 25.3179C150.565 24.9935 150.696 24.3758 150.696 23.4649V13.3514C150.696 12.8086 150.64 12.3407 150.534 11.9352C150.428 11.5359 150.229 11.2177 149.949 10.9931C149.67 10.7685 149.247 10.6499 148.687 10.6499C148.128 10.6499 147.568 10.8121 147.083 11.1366C146.598 11.461 146.206 11.9102 145.914 12.4842C145.622 13.0582 145.479 13.7008 145.479 14.4183V23.4587C145.479 24.3696 145.616 24.9872 145.883 25.3117C146.15 25.6361 146.598 25.7983 147.226 25.7983V26.4784C146.834 26.4596 146.269 26.4284 145.522 26.3972C144.776 26.3661 144.005 26.3473 143.203 26.3473C142.401 26.3473 141.537 26.3661 140.673 26.3972C139.808 26.4284 139.162 26.4596 138.727 26.4784V25.7983C139.485 25.7983 140.02 25.6361 140.331 25.3117C140.642 24.9872 140.803 24.3696 140.803 23.4587V13.2142C140.803 12.2409 140.66 11.5172 140.368 11.0492C140.076 10.5813 139.529 10.3505 138.733 10.3505V9.6704C139.423 9.73279 140.094 9.77023 140.741 9.77023C141.649 9.77023 142.494 9.73279 143.284 9.65792C144.074 9.58306 144.801 9.47075 145.473 9.31478V12.2409C146.014 11.1366 146.747 10.3567 147.674 9.90125C148.6 9.4458 149.639 9.22119 150.783 9.22119Z" fill="#FF6C49"/>
<path d="M164.167 1.02319V23.465C164.167 24.3759 164.323 24.9936 164.64 25.318C164.951 25.6424 165.485 25.8046 166.244 25.8046V26.4847C165.834 26.466 165.218 26.4348 164.397 26.4036C163.577 26.3724 162.743 26.3537 161.904 26.3537C161.065 26.3537 160.213 26.3724 159.361 26.4036C158.509 26.4348 157.863 26.466 157.434 26.4847V25.8046C158.192 25.8046 158.727 25.6424 159.038 25.318C159.349 24.9936 159.51 24.3759 159.51 23.465V4.92883C159.51 3.95554 159.367 3.23181 159.075 2.76388C158.783 2.29596 158.236 2.06511 157.44 2.06511V1.38506C158.13 1.44745 158.801 1.48488 159.448 1.48488C160.331 1.48488 161.177 1.44745 161.979 1.37258C162.781 1.29771 163.514 1.18541 164.18 1.02943L164.167 1.02319Z" fill="#FF6C49"/>
<path d="M173.31 9.32103V23.4712C173.31 24.3821 173.466 24.9997 173.783 25.3241C174.094 25.6486 174.628 25.8108 175.387 25.8108V26.4908C174.995 26.4721 174.392 26.4409 173.571 26.4097C172.751 26.3785 171.917 26.3598 171.078 26.3598C170.239 26.3598 169.381 26.3785 168.516 26.4097C167.652 26.4409 167.006 26.4721 166.57 26.4908V25.8108C167.329 25.8108 167.864 25.6486 168.174 25.3241C168.485 24.9997 168.647 24.3821 168.647 23.4712V13.2267C168.647 12.2534 168.504 11.5296 168.212 11.0617C167.92 10.5938 167.372 10.3629 166.577 10.3629V9.68289C167.267 9.74529 167.938 9.78272 168.585 9.78272C169.493 9.78272 170.338 9.74529 171.128 9.67042C171.917 9.59555 172.645 9.48324 173.316 9.32727L173.31 9.32103ZM170.78 1.28516C171.687 1.28516 172.402 1.50976 172.937 1.95273C173.466 2.3957 173.733 3.00713 173.733 3.79325C173.733 4.57937 173.466 5.18455 172.937 5.63376C172.409 6.07673 171.687 6.30134 170.78 6.30134C169.872 6.30134 169.151 6.07673 168.622 5.63376C168.094 5.19079 167.826 4.57937 167.826 3.79325C167.826 3.00713 168.094 2.40194 168.622 1.95273C169.151 1.50976 169.872 1.28516 170.78 1.28516Z" fill="#FF6C49"/>
<path d="M187.767 9.22119C188.675 9.22119 189.415 9.33349 189.987 9.56434C190.559 9.78894 191.006 10.1009 191.33 10.494C191.678 10.9057 191.927 11.436 192.094 12.0849C192.262 12.7338 192.337 13.6135 192.337 14.7178V23.4649C192.337 24.3758 192.492 24.9935 192.809 25.3179C193.12 25.6423 193.655 25.8045 194.414 25.8045V26.4846C194.003 26.4659 193.388 26.4347 192.567 26.4035C191.746 26.3723 190.938 26.3536 190.136 26.3536C189.334 26.3536 188.507 26.3723 187.723 26.4035C186.934 26.4347 186.337 26.4659 185.927 26.4846V25.8045C186.573 25.8045 187.027 25.6423 187.288 25.3179C187.549 24.9935 187.68 24.3758 187.68 23.4649V13.3514C187.68 12.8086 187.624 12.3407 187.518 11.9352C187.413 11.5359 187.214 11.2177 186.934 10.9931C186.654 10.7685 186.231 10.6499 185.672 10.6499C185.112 10.6499 184.552 10.8121 184.067 11.1366C183.582 11.461 183.191 11.9102 182.899 12.4842C182.606 13.0582 182.463 13.7008 182.463 14.4183V23.4587C182.463 24.3696 182.6 24.9872 182.867 25.3117C183.135 25.6361 183.582 25.7983 184.21 25.7983V26.4784C183.819 26.4596 183.253 26.4284 182.507 26.3972C181.761 26.3661 180.99 26.3473 180.188 26.3473C179.386 26.3473 178.521 26.3661 177.657 26.3972C176.793 26.4284 176.146 26.4596 175.711 26.4784V25.7983C176.469 25.7983 177.004 25.6361 177.315 25.3117C177.626 24.9872 177.788 24.3696 177.788 23.4587V13.2142C177.788 12.2409 177.645 11.5172 177.352 11.0492C177.06 10.5813 176.513 10.3505 175.717 10.3505V9.6704C176.407 9.73279 177.079 9.77023 177.725 9.77023C178.633 9.77023 179.479 9.73279 180.268 9.65792C181.058 9.58306 181.786 9.47075 182.457 9.31478V12.2409C182.998 11.1366 183.732 10.3567 184.658 9.90125C185.585 9.4458 186.623 9.22119 187.767 9.22119Z" fill="#FF6C49"/>
<path d="M202.906 9.22119C204.809 9.22119 206.301 9.7827 207.377 10.912C208.459 12.0412 209 13.8817 209 16.4398H198.336L198.274 15.8221H204.921C204.94 14.7615 204.877 13.7757 204.728 12.8773C204.579 11.9788 204.336 11.2551 204.013 10.7123C203.69 10.1695 203.255 9.90125 202.72 9.90125C201.961 9.90125 201.321 10.3754 200.792 11.33C200.264 12.2846 199.947 13.8693 199.835 16.0779L199.934 16.2713C199.909 16.5333 199.897 16.8016 199.885 17.0824C199.872 17.3631 199.866 17.6564 199.866 17.9621C199.866 19.4594 200.077 20.6698 200.5 21.6057C200.923 22.5353 201.458 23.2153 202.104 23.6396C202.751 24.0639 203.41 24.276 204.082 24.276C204.535 24.276 205.008 24.2073 205.493 24.0639C205.978 23.9204 206.469 23.6646 206.967 23.284C207.464 22.9034 207.93 22.3668 208.359 21.6743L208.944 21.8677C208.683 22.6913 208.272 23.4961 207.713 24.276C207.153 25.0559 206.438 25.6985 205.574 26.1976C204.71 26.6967 203.671 26.9463 202.465 26.9463C200.998 26.9463 199.698 26.6343 198.573 26.0042C197.447 25.374 196.571 24.4195 195.93 23.1405C195.29 21.8615 194.973 20.2331 194.973 18.2615C194.973 16.29 195.315 14.568 195.992 13.2204C196.67 11.879 197.615 10.8745 198.815 10.2132C200.015 9.55186 201.383 9.22119 202.913 9.22119H202.906Z" fill="#FF6C49"/>
<path d="M136.109 18.3403C138.91 11.579 135.718 3.81958 128.98 1.00925C122.241 -1.80109 114.509 1.40186 111.708 8.16323C108.907 14.9246 112.099 22.684 118.837 25.4943C125.575 28.3047 133.308 25.1017 136.109 18.3403Z" fill="#FF6C49"/>
<mask id="mask0_8169_3153" style="mask-type:luminance" maskUnits="userSpaceOnUse" x="110" y="-1" width="28" height="28">
<path d="M136.109 18.3403C138.91 11.579 135.718 3.81958 128.98 1.00925C122.241 -1.80109 114.509 1.40186 111.708 8.16323C108.907 14.9246 112.099 22.684 118.837 25.4943C125.575 28.3047 133.308 25.1017 136.109 18.3403Z" fill="white"/>
</mask>
<g mask="url(#mask0_8169_3153)">
<path d="M119.44 15.0174C119.44 15.0174 119.428 14.9799 119.415 14.9612C119.185 14.5744 119.167 14.1751 119.378 13.7883C119.596 13.389 119.95 13.1831 120.404 13.1831C121.884 13.1831 123.314 12.9273 124.7 12.397C125.782 11.979 126.783 11.4237 127.685 10.7C130.29 8.62236 131.801 5.9271 132.18 2.6017C132.224 2.23359 132.23 1.85925 132.242 1.48491C132.255 1.01074 132.46 0.655118 132.87 0.436752C133.281 0.224625 133.697 0.262059 134.077 0.530338C134.394 0.761182 134.549 1.08561 134.549 1.48491C134.537 2.80758 134.35 4.1053 133.977 5.37183C133.517 6.93782 132.808 8.38528 131.844 9.70172C131.546 10.1073 131.216 10.4816 130.899 10.8684C130.868 10.9058 130.843 10.9433 130.818 10.9807C130.514 11.2802 130.209 11.5859 129.904 11.8854C129.873 11.9103 129.836 11.9291 129.811 11.954C129.27 12.4344 128.698 12.8711 128.089 13.2642C125.739 14.7678 123.171 15.5103 120.392 15.504C120.161 15.504 119.95 15.4416 119.757 15.3106C119.739 15.2981 119.72 15.2919 119.701 15.2857C119.614 15.1983 119.533 15.111 119.446 15.0236L119.44 15.0174Z" fill="white"/>
<path d="M126.999 7.85501C125.265 9.51459 122.914 10.4879 120.179 10.4941C119.712 10.4941 119.321 10.2258 119.153 9.80159C118.991 9.38357 119.097 8.90317 119.426 8.59745C119.644 8.3978 119.905 8.30422 120.197 8.31046C121.211 8.31046 122.193 8.12953 123.132 7.74894C124.301 7.27478 125.302 6.55729 126.123 5.60272C127.366 4.14902 127.994 2.46448 128.031 0.549101C128.038 0.112369 128.237 -0.224539 128.628 -0.424188C129.02 -0.623837 129.406 -0.592642 129.76 -0.336842C130.065 -0.118476 130.214 0.187237 130.208 0.567818C130.189 2.18373 129.816 3.71853 129.064 5.14727C128.585 6.07064 127.963 6.88796 126.993 7.85501H126.999Z" fill="white"/>
<path d="M124.283 4.11159C122.971 5.37187 121.547 5.96458 119.887 5.97082C119.445 5.97082 119.11 5.77117 118.904 5.37811C118.705 4.98505 118.743 4.59823 118.998 4.24261C119.215 3.93689 119.526 3.79964 119.905 3.79964C120.633 3.79964 121.317 3.6187 121.932 3.22564C123.139 2.45824 123.767 1.35393 123.81 -0.0810428C123.829 -0.648795 124.214 -1.09801 124.761 -1.16663C125.402 -1.24774 125.98 -0.748619 125.974 -0.105999C125.974 1.17924 125.601 2.35842 124.849 3.40658C124.643 3.69357 124.407 3.95561 124.276 4.11159H124.283Z" fill="white"/>
</g>
<path d="M123.594 18.374C123.687 22.679 123.743 27.1773 123.824 30.927C124.769 30.2157 125.708 29.4982 126.647 28.787C127.119 29.8913 127.536 30.8958 128.008 32.0063C128.804 31.6632 129.644 31.3013 130.334 31.0018C129.861 29.8975 129.445 28.893 128.978 27.7887C130.141 27.6016 131.31 27.4144 132.473 27.2272C129.401 24.1638 126.242 21.0131 123.6 18.3803L123.594 18.374Z" fill="black"/>
<path d="M21.3249 3.90541V4.55427C20.6348 4.64161 20.1125 4.82255 19.7705 5.09083C19.4223 5.3591 19.1923 5.7896 19.0741 6.37607C18.956 6.96254 18.8938 7.78609 18.8938 8.84672V26.9961C18.6327 26.9711 18.3716 26.9649 18.098 26.9649C17.8244 26.9649 17.5384 26.9774 17.2399 26.9961L3.17562 9.10876V21.5993C3.17562 22.791 3.2378 23.7081 3.36837 24.3445C3.49894 24.9871 3.78495 25.4425 4.22641 25.7108C4.66786 25.9853 5.36423 26.1725 6.31553 26.2786V26.9274C5.90517 26.8838 5.36423 26.8588 4.69273 26.8463C4.02122 26.8339 3.39946 26.8276 2.815 26.8276C2.31759 26.8276 1.80774 26.8276 1.29168 26.8463C0.775611 26.8588 0.340376 26.8838 -0.00159485 26.9274V26.2786C0.688564 26.1725 1.21085 25.9853 1.55282 25.7233C1.90101 25.4613 2.13106 25.037 2.24919 24.4381C2.36733 23.8391 2.42951 23.0218 2.42951 21.9799V7.34935C2.42951 6.54452 2.36733 5.95805 2.24919 5.57747C2.13106 5.19689 1.89479 4.94109 1.53416 4.79759C1.17976 4.65409 0.663693 4.57299 -0.0078125 4.55427V3.90541C0.340376 3.93037 0.769393 3.94908 1.28546 3.9678C1.80152 3.99276 2.31137 3.99899 2.80878 3.99899C3.30619 3.99899 3.82226 3.98652 4.30102 3.9678C4.77356 3.94908 5.20879 3.92413 5.60051 3.90541L18.1415 19.4219V9.23978C18.1415 8.04813 18.0793 7.13099 17.9488 6.48837C17.8182 5.85199 17.5322 5.3903 17.0907 5.1033C16.6493 4.82255 15.9529 4.63538 15.0016 4.54803V3.89917C15.412 3.92413 15.9529 3.94284 16.6244 3.96156C17.2959 3.98652 17.9239 3.99276 18.5021 3.99276C19.0182 3.99276 19.5343 3.98028 20.0441 3.96156C20.5539 3.94284 20.9767 3.91789 21.3249 3.89917V3.90541Z" fill="#7155EB"/>
<path d="M50.1754 3.90552V4.55438C49.4852 4.57933 48.9629 4.66044 48.621 4.7977C48.2728 4.9412 48.0427 5.197 47.9246 5.57758C47.8064 5.95816 47.7443 6.55087 47.7443 7.34946V23.4836C47.7443 24.2635 47.8064 24.85 47.9246 25.2368C48.0427 25.6298 48.2728 25.8856 48.621 26.0167C48.9691 26.1477 49.4852 26.235 50.1754 26.2787V26.9275C49.5723 26.8839 48.8075 26.8589 47.8873 26.8464C46.9671 26.834 46.0344 26.8277 45.0831 26.8277C44.0448 26.8277 43.0748 26.8277 42.167 26.8464C41.2593 26.8589 40.5256 26.8839 39.966 26.9275V26.2787C40.6997 26.235 41.2593 26.1477 41.6323 26.0167C42.0116 25.8856 42.2665 25.6236 42.3971 25.2368C42.5277 24.85 42.5898 24.2635 42.5898 23.4836V5.88953H42.8137L34.7743 26.965H34.2582L25.5037 6.02055V21.5994C25.5037 22.7911 25.5659 23.7082 25.6965 24.3446C25.8271 24.9872 26.1131 25.4427 26.5545 25.7109C26.996 25.9855 27.6924 26.1726 28.6437 26.2787V26.9275C28.2333 26.8839 27.6924 26.8589 27.0209 26.8464C26.3493 26.834 25.7276 26.8277 25.1431 26.8277C24.6457 26.8277 24.1359 26.8277 23.6198 26.8464C23.1037 26.8589 22.6685 26.8839 22.3265 26.9275V26.2787C23.0167 26.1726 23.539 25.9855 23.8809 25.7234C24.2291 25.4614 24.4592 25.0371 24.5773 24.4382C24.6955 23.8392 24.7576 23.0219 24.7576 21.98V7.34946C24.7576 6.54463 24.6955 5.95816 24.5773 5.57758C24.4592 5.197 24.2229 4.9412 23.8623 4.7977C23.5079 4.6542 22.9918 4.57309 22.3203 4.55438V3.90552C22.6685 3.93047 23.0975 3.94919 23.6136 3.96791C24.1296 3.99286 24.6395 3.9991 25.1369 3.9991C26.0633 3.9991 26.9773 3.98662 27.8789 3.96791C28.7742 3.94919 29.5701 3.92423 30.2602 3.90552L37.0686 20.3953L36.2603 21.144L42.7764 4.00534H45.0769C46.0282 4.00534 46.9608 3.99286 47.8811 3.97415C48.8013 3.95543 49.5598 3.93047 50.1692 3.91176L50.1754 3.90552Z" fill="#7155EB"/>
<path d="M61.2924 3.90552V4.55438C60.6022 4.57933 60.0737 4.66044 59.7193 4.7977C59.3649 4.9412 59.1286 5.197 59.0229 5.57758C58.9172 5.95816 58.8613 6.55087 58.8613 7.34946V23.4836C58.8613 24.2635 58.9235 24.85 59.0416 25.2368C59.1597 25.6298 59.3898 25.8856 59.738 26.0167C60.0862 26.1477 60.6022 26.235 61.2924 26.2787V26.9275C60.7079 26.8839 59.9742 26.8589 59.0913 26.8464C58.2022 26.834 57.3069 26.8277 56.3991 26.8277C55.3421 26.8277 54.3597 26.8277 53.4644 26.8464C52.569 26.8589 51.8353 26.8839 51.2758 26.9275V26.2787C51.9659 26.235 52.4882 26.1477 52.8302 26.0167C53.1784 25.8856 53.4084 25.6236 53.5265 25.2368C53.6447 24.8437 53.7068 24.2635 53.7068 23.4836V7.34946C53.7068 6.54463 53.6447 5.95816 53.5265 5.57758C53.4084 5.197 53.1721 4.9412 52.8115 4.7977C52.4571 4.6542 51.941 4.57309 51.2695 4.55438V3.90552C51.8291 3.93047 52.5628 3.94919 53.4581 3.96791C54.3535 3.99286 55.3297 3.9991 56.3929 3.9991C57.3006 3.9991 58.196 3.98662 59.0851 3.96791C59.968 3.94919 60.7079 3.92423 61.2862 3.90552H61.2924Z" fill="#7155EB"/>
<path d="M90.2652 3.90552V4.55438C89.5751 4.57933 89.0528 4.66044 88.7108 4.7977C88.3626 4.9412 88.1326 5.197 88.0144 5.57758C87.8963 5.95816 87.8341 6.55087 87.8341 7.34946V23.4836C87.8341 24.2635 87.8963 24.85 88.0144 25.2368C88.1326 25.6298 88.3626 25.8856 88.7108 26.0167C89.059 26.1477 89.5751 26.235 90.2652 26.2787V26.9275C89.6621 26.8839 88.8973 26.8589 87.9771 26.8464C87.0569 26.834 86.1243 26.8277 85.173 26.8277C84.1346 26.8277 83.1647 26.8277 82.2569 26.8464C81.3491 26.8589 80.6154 26.8839 80.0558 26.9275V26.2787C80.7895 26.235 81.3491 26.1477 81.7222 26.0167C82.1014 25.8856 82.3564 25.6236 82.4869 25.2368C82.6175 24.85 82.6797 24.2635 82.6797 23.4836V5.88953H82.9035L74.8641 26.965H74.348L65.5936 6.02055V21.5994C65.5936 22.7911 65.6558 23.7082 65.7863 24.3446C65.9169 24.9872 66.2029 25.4427 66.6444 25.7109C67.0858 25.9855 67.7822 26.1726 68.7335 26.2787V26.9275C68.3231 26.8839 67.7822 26.8589 67.1107 26.8464C66.4392 26.834 65.8174 26.8277 65.233 26.8277C64.7356 26.8277 64.2257 26.8277 63.7096 26.8464C63.1936 26.8589 62.7583 26.8839 62.4164 26.9275V26.2787C63.1065 26.1726 63.6288 25.9855 63.9708 25.7234C64.319 25.4614 64.549 25.0371 64.6672 24.4382C64.7853 23.8392 64.8475 23.0219 64.8475 21.98V7.34946C64.8475 6.54463 64.7853 5.95816 64.6672 5.57758C64.549 5.197 64.3128 4.9412 63.9521 4.7977C63.5977 4.6542 63.0817 4.57309 62.4102 4.55438V3.90552C62.7583 3.93047 63.1874 3.94919 63.7034 3.96791C64.2195 3.99286 64.7293 3.9991 65.2268 3.9991C66.1532 3.9991 67.0672 3.98662 67.9687 3.96791C68.8641 3.94919 69.6599 3.92423 70.3501 3.90552L77.1584 20.3953L76.3501 21.144L82.8662 4.00534H85.1667C86.118 4.00534 87.0507 3.99286 87.9709 3.97415C88.8911 3.95543 89.6497 3.93047 90.259 3.91176L90.2652 3.90552Z" fill="#7155EB"/>
<path d="M99.4731 3.48123C100.748 3.48123 101.73 3.61849 102.42 3.88677C103.11 4.16128 103.707 4.44828 104.205 4.74775C104.466 4.89749 104.677 5.01603 104.839 5.0909C105.001 5.16577 105.156 5.2032 105.311 5.2032C105.529 5.2032 105.684 5.08466 105.784 4.84758C105.883 4.61049 105.964 4.24863 106.026 3.77446H106.773C106.754 4.18624 106.723 4.67912 106.692 5.25311C106.661 5.8271 106.636 6.58203 106.63 7.51164C106.617 8.44126 106.611 9.67035 106.611 11.1864H105.865C105.778 10.0572 105.517 8.96534 105.088 7.89846C104.652 6.83783 104.043 5.96436 103.253 5.27807C102.464 4.59801 101.5 4.25487 100.35 4.25487C99.3114 4.25487 98.4596 4.5481 97.7881 5.13457C97.1166 5.72104 96.7808 6.53212 96.7808 7.57403C96.7808 8.44126 96.9984 9.1837 97.4275 9.80137C97.8565 10.419 98.4907 11.0242 99.3238 11.6044C100.157 12.1909 101.164 12.8959 102.352 13.7195C103.39 14.3933 104.317 15.0671 105.137 15.7347C105.958 16.4085 106.617 17.1634 107.115 18.0119C107.612 18.8604 107.861 19.8649 107.861 21.0379C107.861 22.4666 107.488 23.652 106.741 24.5816C105.995 25.5113 105.019 26.2163 103.807 26.6779C102.594 27.1459 101.27 27.3767 99.8213 27.3767C98.4782 27.3767 97.4088 27.2457 96.6129 26.9837C95.8109 26.7216 95.1456 26.4533 94.6046 26.1726C94.1321 25.8669 93.759 25.7171 93.5041 25.7171C93.2865 25.7171 93.1311 25.8357 93.0316 26.0728C92.9321 26.3098 92.8513 26.6717 92.7891 27.1459H92.043C92.0865 26.628 92.1114 26.0166 92.1238 25.3241C92.1362 24.6315 92.1425 23.7269 92.1549 22.6101C92.1673 21.4933 92.1735 20.0771 92.1735 18.3676H92.9197C93.0067 19.7963 93.2492 21.1377 93.6471 22.3855C94.0451 23.6333 94.6606 24.6378 95.4938 25.3927C96.3269 26.1539 97.4337 26.5282 98.814 26.5282C99.5725 26.5282 100.244 26.391 100.841 26.1227C101.438 25.8544 101.917 25.4426 102.283 24.9061C102.65 24.3633 102.837 23.6895 102.837 22.8909C102.837 21.98 102.625 21.1876 102.203 20.5138C101.78 19.84 101.208 19.2098 100.487 18.6296C99.7591 18.0431 98.9259 17.4504 97.9746 16.839C96.9611 16.1652 96.0098 15.4976 95.1207 14.8238C94.2316 14.15 93.529 13.3826 93.0005 12.5153C92.472 11.6481 92.2046 10.6187 92.2046 9.42703C92.2046 8.06068 92.5466 6.93765 93.2243 6.05795C93.9021 5.17825 94.8036 4.52939 95.9166 4.10513C97.0295 3.68088 98.2109 3.46875 99.4668 3.46875L99.4731 3.48123Z" fill="#7155EB"/>
</svg>
