<?xml version="1.0" encoding="UTF-8"?>
<svg id="Layer_2" data-name="Layer 2" xmlns="http://www.w3.org/2000/svg" xmlns:xlink="http://www.w3.org/1999/xlink" viewBox="0 0 325 275.02">
  <defs>
    <style>
      .cls-1 {
        clip-path: url(#clippath);
      }

      .cls-2 {
        fill: url(#linear-gradient);
      }

      .cls-2, .cls-3, .cls-4, .cls-5, .cls-6, .cls-7, .cls-8, .cls-9, .cls-10, .cls-11 {
        stroke-width: 0px;
      }

      .cls-3, .cls-8, .cls-12 {
        fill: #c5b1ff;
      }

      .cls-3, .cls-12 {
        opacity: .4;
      }

      .cls-4 {
        opacity: .09;
      }

      .cls-4, .cls-7 {
        fill: #522bbf;
      }

      .cls-5 {
        fill: url(#linear-gradient-2);
      }

      .cls-6 {
        fill: url(#linear-gradient-3);
      }

      .cls-9 {
        fill: #ff5c35;
      }

      .cls-10 {
        fill: #fff;
      }

      .cls-11 {
        fill: #6a40c6;
      }
    </style>
    <clipPath id="clippath">
      <ellipse id="SVGID-2" data-name="SVGID" class="cls-3" cx="164.48" cy="29.94" rx="15.91" ry="15.84"/>
    </clipPath>
    <linearGradient id="linear-gradient" x1="155.66" y1="22.94" x2="171.41" y2="22.94" gradientUnits="userSpaceOnUse">
      <stop offset=".17" stop-color="#4b00ff"/>
      <stop offset="1" stop-color="#8015ff"/>
    </linearGradient>
    <linearGradient id="linear-gradient-2" x1="157.55" y1="22.82" x2="170.41" y2="22.82" xlink:href="#linear-gradient"/>
    <linearGradient id="linear-gradient-3" x1="32.42" y1="79.31" x2="49.24" y2="79.31" xlink:href="#linear-gradient"/>
  </defs>
  <g id="Layer_1-2" data-name="Layer 1">
    <g>
      <rect class="cls-10" y=".02" width="325" height="275"/>
      <g>
        <g>
          <g>
            <path class="cls-7" d="m323.49,240.42h-183.93c-5,0-9.06-4.06-9.06-9.06v-125.24c0-4.99,4.07-9.06,9.06-9.06h175.13c5,0,9.06,4.06,9.06,9.06v134.04c0,.14-.12.26-.26.26ZM139.56,97.58c-4.71,0-8.54,3.83-8.54,8.54v125.24c0,4.71,3.83,8.54,8.54,8.54h183.68V106.12c0-4.71-3.83-8.54-8.54-8.54h-175.13Z"/>
            <path class="cls-7" d="m310.7,234.29h-167.84c-2.92,0-5.29-2.37-5.29-5.29v-120.51c0-2.92,2.37-5.29,5.29-5.29h168.51c2.92,0,5.29,2.37,5.29,5.29v119.83c0,3.29-2.68,5.97-5.97,5.97ZM142.87,103.72c-2.63,0-4.77,2.14-4.77,4.77v120.51c0,2.63,2.14,4.77,4.77,4.77h167.84c3,0,5.45-2.44,5.45-5.45v-119.83c0-2.63-2.14-4.77-4.77-4.77h-168.51Z"/>
            <g>
              <path class="cls-10" d="m309.36,254.11H96.23c-7.81,0-14.14-6.33-14.14-14.14h241.4c0,7.81-6.33,14.14-14.14,14.14Z"/>
              <path class="cls-7" d="m309.36,254.37H96.23c-7.94,0-14.39-6.46-14.39-14.39,0-.14.12-.26.26-.26h241.4c.14,0,.26.12.26.26,0,7.94-6.46,14.39-14.39,14.39Zm-227-14.14c.14,7.53,6.31,13.62,13.87,13.62h213.13c7.56,0,13.73-6.08,13.87-13.62H82.36Z"/>
            </g>
          </g>
          <rect class="cls-4" x="173.88" y="85" width="84.92" height="106.66"/>
          <rect class="cls-4" x="77.28" y="86.02" width="84.6" height="104.78"/>
          <g>
            <g>
              <rect class="cls-10" x="170.47" y="82.04" width="84.3" height="105.44"/>
              <path class="cls-7" d="m254.77,187.75h-84.3c-.14,0-.26-.12-.26-.26v-105.44c0-.14.12-.26.26-.26h84.3c.14,0,.26.12.26.26v105.44c0,.14-.12.26-.26.26Zm-84.04-.52h83.78v-104.93h-83.78v104.93Z"/>
            </g>
            <rect class="cls-3" x="180.87" y="92.4" width="63.5" height="45.23"/>
            <rect class="cls-3" x="180.87" y="145.47" width="63.5" height="5.05"/>
            <rect class="cls-3" x="180.87" y="154.31" width="63.5" height="5.05"/>
            <rect class="cls-3" x="180.87" y="163.58" width="63.5" height="5.05"/>
            <rect class="cls-3" x="180.87" y="172.84" width="63.5" height="5.05"/>
          </g>
          <rect class="cls-4" x="122.13" y="8.1" width="95.6" height="118.34"/>
          <g>
            <g>
              <rect class="cls-10" x="74.5" y="82.04" width="84.3" height="105.44"/>
              <path class="cls-7" d="m158.8,187.75h-84.3c-.14,0-.26-.12-.26-.26v-105.44c0-.14.12-.26.26-.26h84.3c.14,0,.26.12.26.26v105.44c0,.14-.12.26-.26.26Zm-84.04-.52h83.78v-104.93h-83.78v104.93Z"/>
            </g>
            <rect class="cls-3" x="84.9" y="130.75" width="63.5" height="6.88"/>
            <rect class="cls-3" x="84.9" y="145.47" width="63.5" height="6.88"/>
            <rect class="cls-3" x="84.9" y="145.47" width="63.5" height="6.88"/>
          </g>
          <g>
            <g>
              <rect class="cls-10" x="115.51" y=".26" width="98.24" height="122.89"/>
              <path class="cls-7" d="m213.76,123.41h-98.24c-.14,0-.26-.12-.26-.26V.26c0-.14.12-.26.26-.26h98.24c.14,0,.26.12.26.26v122.89c0,.14-.12.26-.26.26Zm-97.98-.52h97.72V.52h-97.72v122.37Z"/>
            </g>
            <rect class="cls-3" x="127.63" y="59.19" width="74" height="8.02"/>
            <rect class="cls-3" x="127.63" y="76.34" width="74" height="8.02"/>
            <g>
              <ellipse class="cls-7" cx="164.48" cy="29.94" rx="18.17" ry="18.08"/>
              <g>
                <ellipse id="SVGID" class="cls-12" cx="164.48" cy="29.94" rx="15.91" ry="15.84"/>
                <g class="cls-1">
                  <g>
                    <path class="cls-2" d="m159.9,29.47l8.35-3.81,2.54.73c1.82-4.36-.49-9.83-5.63-9.99-2.1-.06-3.69,1.82-5.08,2.54-2.59,1.33-6.17,2.72-3.45,8.72l3.27,1.82Z"/>
                    <path class="cls-10" d="m174.34,37.85l-10.12-2.71-10.12,2.71c-2.72.73-4.89,3.12-5.67,6.24l-2.2,13.5h35.96l-2.2-13.5c-.78-3.12-2.94-5.51-5.67-6.24Z"/>
                    <path class="cls-10" d="m159.86,32.14h8.73v9.02c0,1.91-1.55,3.45-3.45,3.45h-1.82c-1.91,0-3.45-1.55-3.45-3.45v-9.02h0Z"/>
                    <g>
                      <path class="cls-10" d="m171.53,26.51c-.32-.08-.64-.05-.94.07-.25-4.02-3.01-6.74-6.37-6.74s-6.12,2.73-6.37,6.74c-.3-.11-.62-.14-.94-.07-.94.23-1.48,1.32-1.21,2.43.28,1.11,1.27,1.82,2.21,1.58.15-.04.29-.1.42-.18.97,2.97,3.24,5.24,5.88,5.24s4.91-2.27,5.88-5.24c.13.08.27.14.42.18.94.23,1.93-.48,2.21-1.58.28-1.11-.26-2.19-1.21-2.43Z"/>
                      <path class="cls-7" d="m164.22,35.87c-2.53,0-4.93-2.05-6.05-5.13-.06.02-.12.04-.18.06-1.1.27-2.25-.53-2.56-1.8-.17-.66-.07-1.35.25-1.9.27-.45.69-.77,1.17-.88.24-.06.5-.07.75-.02.39-3.88,3.13-6.66,6.63-6.66s6.24,2.78,6.63,6.66c.25-.04.5-.04.75.02.48.12.9.43,1.17.88.33.54.42,1.23.25,1.9-.32,1.26-1.47,2.07-2.56,1.8-.06-.02-.12-.03-.18-.06-1.12,3.08-3.52,5.13-6.05,5.13Zm-5.88-5.82s.07,0,.1.02c.08.03.15.1.18.18.99,3.01,3.24,5.04,5.61,5.04s4.62-2.02,5.61-5.04c.03-.08.09-.15.18-.18.08-.03.18-.02.25.02.11.07.23.12.34.14.79.19,1.62-.42,1.86-1.37.13-.51.06-1.04-.19-1.45-.19-.32-.48-.54-.81-.62h0c-.25-.06-.51-.04-.76.05-.09.03-.18.02-.26-.03-.08-.05-.13-.13-.13-.23-.24-3.75-2.79-6.47-6.08-6.47s-5.84,2.72-6.08,6.47c0,.09-.06.18-.13.23-.08.05-.18.06-.26.03-.25-.1-.52-.12-.76-.05-.33.08-.62.3-.81.62-.25.41-.32.94-.19,1.45.24.95,1.07,1.56,1.86,1.37.12-.03.23-.08.34-.14.05-.03.1-.04.15-.04Z"/>
                    </g>
                    <path class="cls-5" d="m157.68,26.9c1.51-.28.41-5.23,6.76-4.69,4.9.42,4.84,3.93,5.94,4.42,0,0,.82-8.18-6.71-7.89-7.53.29-6,8.16-6,8.16Z"/>
                  </g>
                </g>
              </g>
            </g>
          </g>
          <g>
            <g>
              <g>
                <path class="cls-7" d="m2.54,252.14s-.03,0-.05,0c-.14-.03-.23-.17-.2-.31l20.89-103.62c.03-.14.16-.23.31-.2.14.03.23.17.2.31L2.79,251.94c-.02.12-.13.21-.25.21Z"/>
                <path class="cls-7" d="m.31,251.88c0,1.23,1,2.22,2.22,2.22s2.22-1,2.22-2.22-1-2.22-2.22-2.22-2.22,1-2.22,2.22Z"/>
              </g>
              <g>
                <path class="cls-7" d="m55.49,252.14c-.12,0-.23-.09-.25-.21l-20.89-103.62c-.03-.14.06-.28.2-.31.14-.03.28.06.31.2l20.89,103.62c.03.14-.06.28-.2.31-.02,0-.03,0-.05,0Z"/>
                <circle class="cls-7" cx="55.49" cy="251.88" r="2.22" transform="translate(-.76 .17) rotate(-.17)"/>
              </g>
              <path class="cls-7" d="m32.28,219.07H10.21c-.14,0-.26-.12-.26-.26s.12-.26.26-.26h22.07c.14,0,.26.12.26.26s-.12.26-.26.26Z"/>
              <path class="cls-7" d="m32.54,223.89H12.08c-.14,0-.26-.12-.26-.26s.12-.26.26-.26h20.46c.14,0,.26.12.26.26s-.12.26-.26.26Z"/>
            </g>
            <g>
              <g>
                <path class="cls-10" d="m97.8,100.08c.23.17.47.33.71.49,5.64-8.17,9.26-15.93,9.26-15.93,4.5-2.33,2.38-4.22,2.38-4.22,1.01-2.44-1.01-2.97-1.01-2.97-.15-3.15-3.06-2.29-3.06-2.29,2.71-2.94,4.6-8.13-2.87-2.4-4.37,3.35-10.29,9.86-15.63,15.7,2.33,4.67,5.98,8.62,10.23,11.62Z"/>
                <path class="cls-7" d="m99.04,100.06c-.05,0-.1-.02-.15-.05-.12-.08-.15-.24-.06-.36,2.04-2.92,3.69-5.91,5.45-9.07,1.03-1.85,2.09-3.77,3.26-5.71.28-.42.73-.75,1.21-1.1.5-.37,1.02-.75,1.4-1.25,0,0,.02-.02.02-.03.21-.21.31-.52.28-.87-.03-.39-.22-.78-.54-1.1-.06-.06-.08-.13-.07-.21,0-.08.05-.15.11-.19.47-.32.31-.73,0-1.32-.03-.06-.06-.11-.08-.16,0-.01-.01-.02-.01-.03-.14-.43-.46-.96-.8-1.52-.25-.42-.51-.85-.73-1.28-.34-.49-.97-.45-1.7-.4-.18.01-.35.02-.53.03-.01,0-.03,0-.04,0h0s-.05-.01-.08-.02c0,0,0,0,0,0-.02-.01-.05-.03-.07-.05,0,0,0,0,0,0h0s-.03-.04-.04-.06c-.01-.02-.02-.04-.03-.06,0,0,0,0,0,0,0-.03-.01-.05,0-.08h0s0-.06.02-.09c0,0,0-.02.01-.03.26-.46.62-.92.97-1.36.84-1.08,1.64-2.1,1.28-3.2-1.75.06-3.06,1.06-4.44,2.1-.31.23-.62.47-.93.69-4.64,4.18-9.19,8.84-14.31,14.67-.09.11-.26.12-.37.02-.11-.09-.12-.26-.02-.37,5.14-5.85,9.71-10.53,14.37-14.72,0,0,.01-.01.02-.02.32-.23.62-.46.93-.69,1.43-1.09,2.92-2.21,4.93-2.21.1,0,.2.06.24.16.62,1.45-.39,2.74-1.29,3.89-.12.15-.23.29-.34.44.09.06.14.16.13.27,0,.05-.02.1-.05.15.67-.03,1.36.04,1.78.67,0,0,.01.02.02.03.21.42.47.85.72,1.26.35.58.68,1.13.85,1.61.02.04.05.09.07.14.23.44.64,1.22.06,1.81.29.36.47.79.5,1.22.04.49-.11.95-.42,1.26-.43.56-1,.98-1.5,1.35-.44.32-.86.63-1.08.96-1.15,1.92-2.21,3.83-3.24,5.68-1.76,3.18-3.43,6.18-5.48,9.12-.05.07-.13.11-.21.11Z"/>
                <path class="cls-7" d="m99.35,85.54c-.19,0-.37-.03-.54-.09-.14-.05-.21-.19-.16-.33.05-.14.19-.21.33-.16.65.22,1.33-.18,1.72-.58.38-.4.64-.9.92-1.42.07-.13.14-.26.21-.39.33-.61.81-1.35,1.57-1.72.36-.18.75-.25,1.12-.33.16-.03.33-.06.49-.1.4-.1.91-.31,1.1-.75.24-.55-.21-1.23-.76-1.47-.62-.27-1.35-.19-2.06-.06-1.97.37-3.65,1.01-5.01,1.9-.12.08-.28.05-.36-.07-.08-.12-.05-.28.07-.36,1.41-.93,3.16-1.6,5.2-1.98.78-.15,1.61-.24,2.36.09.78.34,1.39,1.31,1.03,2.15-.27.63-.94.91-1.45,1.04-.17.04-.34.08-.51.11-.36.07-.69.14-.99.28-.63.31-1.05.97-1.34,1.51-.07.13-.14.26-.21.39-.28.53-.57,1.08-1,1.54-.49.52-1.12.8-1.72.8Z"/>
                <path class="cls-7" d="m104.48,82.45c-.13,0-.27-.02-.4-.05-.52-.14-.99-.68-.85-1.26.03-.14.17-.23.31-.19.14.03.23.17.19.31-.06.27.2.56.48.64.28.08.63.02,1.08-.17,1.61-.68,2.83-2.16,3.19-3.86.03-.14.17-.23.31-.2.14.03.23.17.2.31-.4,1.87-1.74,3.49-3.5,4.23-.26.11-.62.24-1.01.24Z"/>
                <path class="cls-7" d="m106.42,83.1c-.17,0-.33-.02-.48-.07-.46-.15-.8-.55-.81-.98,0-.14.11-.26.25-.27,0,0,0,0,0,0,.14,0,.25.11.26.25,0,.24.23.43.45.5.23.07.51.06.88-.03,1.05-.28,1.97-.97,2.53-1.9.07-.12.23-.16.36-.09.12.07.16.23.09.36-.62,1.05-1.66,1.83-2.84,2.14-.25.07-.48.1-.68.1Z"/>
                <path class="cls-7" d="m107.7,84.34c-.32,0-.63-.13-.85-.36-.3-.31-.4-.79-.26-1.19.05-.14.2-.21.33-.16.14.05.21.2.16.33-.08.22-.02.49.14.66.16.17.43.24.66.17.14-.04.28.04.32.17.04.14-.04.28-.17.32-.11.03-.22.05-.33.05Z"/>
              </g>
              <g>
                <g>
                  <path class="cls-10" d="m21.41,152.24c5.17.22,16.26.1,24.3-.04,5.12-.09,9.41-3.91,10.07-8.99.79-6.03,2.45-14.68,5.93-24.41,5.21,1.23,17.37,1.7,25.61-5.03,5.34-4.36,11.44-11.37,15.8-20.43-4.3-.8-8.42-3.62-12.37-8.34,0,0-8.13,7.99-13.03,12.33-1.82,1.62-4.23,2.41-6.66,2.21-5.92-.5-17.01-1.42-19.21-1.56-5.9-.36-16.29-.64-25.43.9-3.16.53-5.85,2.59-7.18,5.51-2.44,5.33-6.55,14.51-9.33,21.78-1.87,4.88.56,10.43,5.48,12.2.31.11.6.2.89.26,0,0-.85,3.83-.54,8.11.22,3,2.66,5.37,5.67,5.5Z"/>
                  <path class="cls-7" d="m29.7,152.62c-3.33,0-6.27-.03-8.3-.12-3.14-.14-5.69-2.6-5.92-5.74-.27-3.65.31-7.01.49-7.94-.21-.06-.44-.12-.67-.21-2.4-.86-4.31-2.62-5.39-4.97-1.09-2.37-1.18-5.13-.25-7.57,2.83-7.4,7.06-16.83,9.34-21.8,1.37-2.99,4.13-5.11,7.37-5.65,9.3-1.57,19.96-1.24,25.49-.9,2.19.13,12.98,1.03,19.22,1.56,2.35.2,4.7-.58,6.46-2.14,4.84-4.29,12.94-12.25,13.02-12.33.05-.05.12-.08.19-.07.07,0,.14.04.19.09,3.93,4.7,8.04,7.47,12.22,8.25.08.01.15.07.18.14s.04.16,0,.23c-5.2,10.84-12.17,17.51-15.87,20.52-8.28,6.75-20.23,6.33-25.61,5.13-3.5,9.85-5.11,18.55-5.84,24.14-.68,5.16-5.11,9.12-10.32,9.21-4.99.09-10.95.16-16.01.16Zm13.04-54.65c-5.03,0-10.89.27-16.27,1.17-3.08.52-5.69,2.52-6.99,5.36-2.27,4.96-6.5,14.39-9.32,21.77-.88,2.31-.8,4.92.23,7.16,1.02,2.21,2.83,3.88,5.09,4.69.3.11.59.19.85.25.07.01.13.06.16.11.04.06.05.13.04.2,0,.04-.84,3.85-.53,8.04.21,2.87,2.54,5.13,5.42,5.26,5.11.22,16.02.1,24.28-.04,4.95-.08,9.18-3.85,9.82-8.76.74-5.65,2.37-14.49,5.95-24.47.04-.12.18-.19.3-.17,6.02,1.42,17.74,1.26,25.39-4.97,3.62-2.96,10.44-9.47,15.58-20.04-4.12-.86-8.15-3.6-12.01-8.14-1.28,1.26-8.41,8.23-12.84,12.15-1.87,1.65-4.36,2.48-6.85,2.27-6.23-.52-17.02-1.42-19.2-1.56-2.3-.14-5.49-.28-9.1-.28Z"/>
                </g>
                <path class="cls-7" d="m20.66,139.89c-1.32,0-2.68-.15-4.03-.49-.14-.03-.22-.18-.19-.31.03-.14.18-.22.31-.19,5.2,1.3,10.41-.36,13.86-1.98,3.45-1.62,6.66-3.84,9.75-5.99.81-.56,1.62-1.13,2.44-1.68,2.09-1.42,4.34-2.66,6.64-2.16.08.02.15.03.23.05.48.11.98.23,1.29-.02.33-.26.28-.84.02-1.19-.32-.41-.85-.62-1.33-.79l-.13-.05c-.52-.18-1.07-.37-1.5-.76-.08-.08-.11-.2-.06-.3.05-.1.15-.16.27-.15l3.67.41c.25.03.46.04.62-.03.17-.08.23-.24.25-.37.04-.27-.05-.58-.24-.75-.38-.36-.96-.44-1.53-.49-.64-.05-1.33-.11-1.87-.53-.09-.07-.12-.19-.08-.3.04-.11.15-.17.26-.16l4.52.36c.28.02.51.03.69-.06.17-.09.24-.25.27-.37.06-.26,0-.56-.17-.78-.32-.42-.91-.63-1.38-.8-.12-.04-.19-.17-.17-.29.02-.13.14-.22.26-.21.54.02.85-.13.95-.45.09-.28-.03-.49-.45-.81-.36-.27-.84-.38-1.26-.46-5.47-1-11.02,1.01-15.23,2.88-1.13.5-2.27,1.04-3.38,1.56-3.64,1.71-7.41,3.48-11.42,4.3-.14.03-.28-.06-.31-.2-.03-.14.06-.28.2-.31,3.95-.8,7.69-2.56,11.3-4.26,1.11-.52,2.25-1.06,3.39-1.56,4.28-1.9,9.92-3.94,15.54-2.91.52.09,1.05.23,1.48.55.26.2.86.65.64,1.37-.06.2-.2.47-.55.65.3.15.58.35.79.64.25.33.35.79.26,1.2-.07.33-.26.58-.53.72-.32.17-.69.14-.97.12l-1.41-.11c.19.09.36.2.51.34.31.3.46.78.39,1.21-.06.35-.25.62-.55.75-.3.14-.65.1-.89.08l-2.29-.25s.09.03.13.05l.13.05c.55.19,1.17.44,1.58.96.42.54.47,1.46-.11,1.91-.51.4-1.16.25-1.73.11-.08-.02-.15-.03-.22-.05-2.1-.45-4.24.73-6.23,2.09-.81.55-1.62,1.11-2.43,1.67-3.12,2.16-6.34,4.39-9.83,6.04-2.64,1.24-6.27,2.5-10.18,2.5Z"/>
                <path class="cls-7" d="m24.6,126.04s-.04,0-.06,0c-.14-.04-.22-.18-.19-.32l1.8-6.99c.04-.14.18-.22.32-.19.14.04.22.18.19.32l-1.8,6.99c-.03.12-.14.19-.25.19Z"/>
                <path class="cls-7" d="m52.79,120.02s-.03,0-.04,0c-1.05-.18-2.13-.29-3.19-.34-.14,0-.25-.13-.25-.27,0-.14.12-.26.27-.25,1.09.04,2.18.16,3.26.34.14.02.24.16.21.3-.02.13-.13.22-.26.22Z"/>
                <path class="cls-7" d="m33.63,135.68c-.1,0-.2-.06-.24-.16-1.57-3.72-2.98-7.56-4.19-11.41-.04-.14.03-.28.17-.33.14-.04.28.03.33.17,1.21,3.83,2.61,7.66,4.17,11.36.06.13,0,.28-.14.34-.03.01-.07.02-.1.02Z"/>
                <path class="cls-7" d="m39.04,132.2c-.08,0-.16-.04-.21-.11-1.29-1.82-3.38-3.03-5.6-3.23-.09,0-.16-.06-.2-.13-.04-.07-.04-.17,0-.24,1-2.02,1.37-4.37,1.03-6.6-.02-.14.08-.27.22-.3.14-.02.27.08.3.22.34,2.22,0,4.54-.92,6.58,2.23.31,4.31,1.56,5.61,3.4.08.12.06.28-.06.36-.05.03-.1.05-.15.05Z"/>
              </g>
            </g>
            <g>
              <g>
                <path class="cls-10" d="m38.35,87.76l-.77,10.16c-1.03.63-.94,2.16.17,2.64,1.84.8,4.95,1.64,7.71-.17.84-.55.96-1.74.24-2.44l-.41-7.85-6.94-2.34Z"/>
                <path class="cls-7" d="m41.76,101.72c-1.64,0-3.13-.5-4.11-.93-.61-.26-.99-.82-1.04-1.48-.04-.61.23-1.19.72-1.55l.76-10.03c0-.08.05-.15.12-.2.07-.04.15-.06.23-.03l6.94,2.34c.1.03.17.13.18.23l.41,7.76c.35.38.52.89.47,1.41-.05.56-.35,1.06-.82,1.36-1.26.83-2.6,1.11-3.84,1.11Zm-3.17-13.62l-.74,9.83c0,.08-.05.16-.12.2-.4.25-.62.67-.59,1.15.03.46.3.85.73,1.04,1.98.87,4.88,1.54,7.46-.15.34-.22.55-.58.59-.98.04-.4-.1-.78-.39-1.06-.05-.05-.08-.11-.08-.17l-.4-7.68-6.45-2.18Zm-1,9.81h0,0Z"/>
              </g>
              <path class="cls-6" d="m32.43,83.43c-.06-.8-.06-3.46,4.66-8.06,3.84-3.74,6.14-5.98,8.35-5.27,3.09.98,3.55,6.91,3.66,8.37.15,1.94.49,4.33-1.1,6.23-1.43,1.71-3.53,2.72-5.67,3.37-1.31.4-2.68.68-4.05.6-3.02-.18-5.64-2.09-5.85-5.23Z"/>
              <g>
                <path class="cls-10" d="m37.4,86.28c-.66.27-1.06,1.01-1.03,1.72.04.71.46,1.37,1.04,1.79.58.41,1.3.6,2.01.64.37.02.77,0,1.07.21.43.29.51.87.7,1.35.43,1.06,1.54,1.72,2.68,1.89s2.28-.09,3.38-.42c.7-.21,1.4-.45,2.03-.83.62-.39,1.17-.93,1.43-1.61.48-1.22.01-2.59-.46-3.82-1-2.62-2-5.24-3-7.86-1.73,1.44-3.92,2.31-6.16,2.46-.42.03-.93.08-1.12.46-.12.26-.04.56.04.83.23.76.46,1.52.69,2.28.12.38.23.79.14,1.18-.07.27-.3.58-.6.63-.37.06-.53-.26-.81-.47-.57-.43-1.33-.71-2.03-.42Z"/>
                <path class="cls-7" d="m44.6,94.19c-.25,0-.51-.02-.77-.05-1.35-.2-2.45-.98-2.88-2.05-.05-.12-.09-.26-.14-.39-.11-.35-.22-.68-.47-.84-.21-.14-.49-.15-.8-.16h-.15c-.84-.05-1.58-.29-2.15-.7-.68-.49-1.11-1.23-1.15-1.98-.04-.86.44-1.67,1.19-1.98.69-.28,1.52-.12,2.28.45.09.07.17.15.24.21.17.17.24.23.37.21.18-.03.34-.25.39-.44.08-.33-.03-.71-.13-1.04l-.69-2.28c-.1-.33-.19-.68-.02-1.02.26-.54.96-.58,1.33-.61,2.19-.14,4.32-.99,6.01-2.4.06-.05.15-.07.23-.05.08.02.15.08.18.16l3,7.86c.51,1.33.96,2.73.46,4.01-.34.86-1.02,1.42-1.54,1.74-.66.41-1.39.66-2.09.86-.82.24-1.76.48-2.72.48Zm-6.6-7.77c-.17,0-.33.03-.5.1-.53.22-.9.84-.87,1.47.03.6.38,1.19.93,1.59.49.35,1.14.55,1.87.59h.14c.35.02.74.04,1.06.26.4.27.54.72.67,1.11.04.12.08.24.12.35.36.88,1.33,1.56,2.47,1.73,1.11.16,2.28-.11,3.26-.41.66-.2,1.35-.43,1.96-.81.45-.28,1.04-.76,1.33-1.49.44-1.1.03-2.35-.46-3.63l-2.88-7.53c-1.72,1.34-3.85,2.15-6.03,2.29-.37.02-.78.07-.9.32-.08.16-.02.4.05.64l.69,2.28c.11.38.26.85.14,1.32-.09.36-.39.76-.81.83-.4.07-.64-.18-.82-.35-.06-.06-.12-.12-.18-.17-.22-.17-.72-.49-1.27-.49Zm-.6-.14h0,0Z"/>
              </g>
              <path class="cls-7" d="m40.17,89.29s-.09-.01-.14-.04c-.49-.3-1.09-.43-1.66-.36-.14.02-.27-.08-.29-.22-.02-.14.08-.27.22-.29.69-.09,1.4.06,2,.43.12.08.16.24.08.36-.05.08-.13.12-.22.12Z"/>
            </g>
            <g>
              <g>
                <path class="cls-10" d="m53.06,228.39c-.2-.49-.46-.96-.81-1.38-1.33-1.58-3.08-2.7-4.8-3.82-1.57-1.02-3.07-2.13-4.66-3.13-2.51-1.58-5.43-3.27-6.95-5.91l-3.06,3.99c-1.53,2-1.35,4.83.43,6.62l17.35,17.44c1.04,1.05,2.83.27,2.77-1.21l-.51-12.38c.08-.07.16-.14.24-.22Z"/>
                <g>
                  <path class="cls-10" d="m35.73,214.28l-2.95,3.85c-1.53,2-1.35,4.83.43,6.62l17.35,17.44c1.04,1.05,2.83.27,2.77-1.21l-.51-12.38-17.08-14.33Z"/>
                  <path class="cls-7" d="m51.7,242.94c-.48,0-.95-.19-1.32-.56l-17.35-17.44c-1.86-1.87-2.06-4.86-.45-6.96l2.95-3.85c.09-.11.25-.14.36-.05.11.09.14.25.05.36l-2.95,3.85c-1.45,1.89-1.27,4.59.41,6.28l17.35,17.44c.48.49,1.1.47,1.51.29.41-.18.84-.62.81-1.3l-.51-12.38c0-.14.11-.26.25-.27.14-.02.26.11.27.25l.51,12.38c.03.79-.4,1.48-1.12,1.8-.25.11-.51.16-.77.16Z"/>
                </g>
                <path class="cls-9" d="m77.14,174.55c-9.82-10.21-23.2-23.79-29.68-30.35-1.99-2.02-4.72-3.13-7.55-3.09-4.67.07-12.12-.07-16.85-.18-2.39-.06-4.32,1.93-4.19,4.31.37,7.15,3.58,13.86,8.91,18.64l27.6,24.73-19.65,25.67c.41.57.85,1.12,1.29,1.65,3.24,3.91,7.22,7.28,11.51,9.98,1.45.91,2.94,1.75,4.46,2.54,4.65-4.32,16.99-20.35,25.49-31.63,5.09-6.75,4.52-16.18-1.34-22.27Z"/>
              </g>
              <g>
                <path class="cls-10" d="m102.72,244.1c-.38-.25-.71-.56-.99-.91l-52.22-65.38c-3.32-4.16-9.82.01-7.41,4.76l34.76,68.49c.07.13.14.27.22.39,1.09,1.65,2.94,2.65,4.93,2.65h17.66c5.41,0,7.54-7,3.05-10.01Z"/>
                <path class="cls-7" d="m114.23,254.37h-32.22c-2.14,0-4.16-1.14-5.28-2.97l-1.43-2.35c-.07-.12-.04-.28.09-.36.12-.07.28-.04.36.09l1.43,2.35c1.02,1.68,2.87,2.72,4.83,2.72h32.22c.43,0,.67-.29.75-.56.08-.27.04-.64-.31-.88l-12.66-8.48c-.12-.08-.15-.24-.07-.36.08-.12.24-.15.36-.07l12.66,8.48c.49.33.69.9.52,1.46-.17.56-.66.92-1.25.92Z"/>
                <path class="cls-9" d="m75.67,248.83c5.32-1,25.39-5.29,26.27-5.46-3.16-5.24-41.01-68.12-54.35-94.88l-25.02-4.41c-2.2.45-3.65,2.53-3.34,4.75.86,6.18,2.98,12.14,6.23,17.5l50.04,82.52c.06-.01.11-.02.17-.03Z"/>
                <path class="cls-7" d="m74.28,196.86c-.09,0-.18-.05-.22-.13-12.7-21.89-21.68-38.08-26.69-48.12-.06-.13-.01-.28.12-.35.13-.06.28-.01.35.12,5,10.03,13.98,26.21,26.68,48.09.07.12.03.28-.09.35-.04.02-.09.03-.13.03Z"/>
                <path class="cls-7" d="m57.79,219.91c-.09,0-.17-.04-.22-.12l-11.06-18.24c-.07-.12-.04-.28.09-.36.12-.07.28-.04.36.09l11.06,18.24c.07.12.04.28-.09.36-.04.03-.09.04-.13.04Z"/>
              </g>
            </g>
          </g>
          <g>
            <rect class="cls-8" x="236.16" y="201.41" width="76.04" height="24.24"/>
            <g>
              <circle class="cls-3" cx="200.63" cy="205.52" r="4.11" transform="translate(-.34 .33) rotate(-.09)"/>
              <circle class="cls-9" cx="212.62" cy="205.52" r="4.11" transform="translate(-.34 .35) rotate(-.09)"/>
              <circle class="cls-3" cx="224.61" cy="205.52" r="4.11" transform="translate(-.34 .37) rotate(-.09)"/>
            </g>
            <path class="cls-7" d="m228.72,216.71h-82.41c-.14,0-.26-.12-.26-.26v-22.44c0-.14.12-.26.26-.26s.26.12.26.26v22.18h82.15c.14,0,.26.12.26.26s-.12.26-.26.26Z"/>
          </g>
          <g>
            <path class="cls-11" d="m177.38,40.15c-2.73-3.07-8.89-3.82-8.96-3.83h-.08s-.04-.08-.04-.08c-.73-1.27-.46-2.19-.44-2.23l.3.09s-.23.8.38,1.91c.78.1,6.4.92,9.07,3.92l-.24.21Z"/>
            <path class="cls-11" d="m150.62,40.15l-.24-.21c2.67-3.01,8.53-3.95,9.32-4.07.6-1.15.14-2.71.14-2.73l.3-.09c.02.07.53,1.77-.2,3.04l-.04.07h-.08c-.06.02-6.47.92-9.2,3.99Z"/>
            <path class="cls-11" d="m164.12,39.17c-.66,0-1.32-.08-1.9-.2-2.54-.54-2.76-3.09-2.77-3.12l.32-.02c0,.1.21,2.34,2.52,2.83,1.52.32,3.59.33,4.85-.63.67-.51,1.04-1.25,1.09-2.2l.32.02c-.06,1.04-.47,1.86-1.22,2.43-.86.65-2.05.89-3.21.89Z"/>
          </g>
          <rect class="cls-7" x="73.58" y="272.64" width="248.85" height=".5"/>
          <rect class="cls-7" x="239.14" y=".24" width="47.45" height=".5"/>
          <rect class="cls-7" x="252.09" y="268.22" width="70.12" height=".5"/>
        </g>
        <path class="cls-7" d="m76.82,248.97s2.02,3.67,3.12,4.03c.9.3,23.9.11,32.02.03.82,0,1.11-1.08.42-1.51l-11.54-7.14-24.01,4.58Z"/>
        <path class="cls-7" d="m35.94,215.24s-4.22,4.22-3.3,6.78,18.88,19.43,18.88,19.43l1.1-.18-.73-12.65s-12.1-6.23-15.95-13.38Z"/>
      </g>
    </g>
  </g>
</svg>