<?xml version="1.0" encoding="UTF-8"?>
<svg id="Layer_2" data-name="Layer 2" xmlns="http://www.w3.org/2000/svg" xmlns:xlink="http://www.w3.org/1999/xlink" viewBox="0 0 325 275">
  <defs>
    <style>
      .cls-1 {
        opacity: .35;
      }

      .cls-1, .cls-2, .cls-3, .cls-4, .cls-5, .cls-6, .cls-7 {
        stroke-width: 0px;
      }

      .cls-1, .cls-4 {
        fill: #522bbf;
      }

      .cls-2 {
        fill: url(#linear-gradient);
      }

      .cls-3 {
        fill: #c5b1ff;
        opacity: .4;
      }

      .cls-5 {
        fill: #ff5c35;
      }

      .cls-6 {
        fill: #fff;
      }

      .cls-7 {
        fill: #eadfff;
      }
    </style>
    <linearGradient id="linear-gradient" x1="103.61" y1="65.85" x2="181.81" y2="65.85" gradientUnits="userSpaceOnUse">
      <stop offset=".17" stop-color="#4b00ff"/>
      <stop offset="1" stop-color="#8015ff"/>
    </linearGradient>
  </defs>
  <g id="Layer_1-2" data-name="Layer 1">
    <rect class="cls-6" width="325" height="275"/>
    <g id="Personal_branding" data-name="Personal branding">
      <g>
        <g>
          <rect class="cls-6" x="20.6" y="48.18" width="268.75" height="169.6" rx="7.12" ry="7.12"/>
          <path class="cls-4" d="m282.22,218.04H27.72c-4.07,0-7.39-3.31-7.39-7.39V55.3c0-4.07,3.31-7.39,7.39-7.39h254.51c4.07,0,7.39,3.31,7.39,7.39v155.36c0,4.07-3.31,7.39-7.39,7.39ZM27.72,48.44c-3.78,0-6.86,3.08-6.86,6.86v155.36c0,3.78,3.08,6.86,6.86,6.86h254.51c3.78,0,6.86-3.08,6.86-6.86V55.3c0-3.78-3.08-6.86-6.86-6.86H27.72Z"/>
        </g>
        <g>
          <path class="cls-6" d="m32.3,208.42h245.34c1.31,0,2.37-1.06,2.37-2.37s-1.06-2.37-2.37-2.37H32.3c-1.31,0-2.37,1.06-2.37,2.37s1.06,2.37,2.37,2.37Z"/>
          <path class="cls-4" d="m277.64,208.68H32.3c-1.45,0-2.63-1.18-2.63-2.63s1.18-2.63,2.63-2.63h245.34c1.45,0,2.63,1.18,2.63,2.63s-1.18,2.63-2.63,2.63Zm-245.34-4.73c-1.16,0-2.1.94-2.1,2.1s.94,2.1,2.1,2.1h245.34c1.16,0,2.1-.94,2.1-2.1s-.94-2.1-2.1-2.1H32.3Z"/>
        </g>
        <ellipse class="cls-5" cx="56.64" cy="206.05" rx="4.38" ry="4.37"/>
        <g>
          <circle class="cls-3" cx="57.56" cy="60.51" r="3.8"/>
          <circle class="cls-3" cx="46.45" cy="60.51" r="3.8"/>
          <circle class="cls-3" cx="35.35" cy="60.51" r="3.8"/>
        </g>
      </g>
      <g>
        <g>
          <path class="cls-6" d="m77.34,166.83l-54.39,11.89-9.01,11.46L1.44,133.2c-.41-1.88.78-3.75,2.67-4.16l61.97-13.55c1.89-.41,3.75.78,4.17,2.66l9.77,44.51c.41,1.88-.78,3.75-2.67,4.16Z"/>
          <path class="cls-4" d="m13.94,190.45s-.04,0-.06,0c-.1-.02-.18-.1-.2-.2L1.18,133.25c-.22-.98-.03-1.99.51-2.83.54-.84,1.38-1.43,2.36-1.64l61.97-13.55c2.03-.44,4.04.84,4.48,2.87l9.77,44.51c.22.98.03,1.99-.51,2.83-.54.84-1.38,1.43-2.36,1.64l-54.3,11.87-8.95,11.39c-.05.06-.13.1-.21.1Zm52.89-74.77c-.23,0-.46.02-.69.08l-61.97,13.55c-.84.18-1.57.69-2.03,1.41-.47.73-.62,1.59-.44,2.43l12.38,56.43,8.66-11.02s.09-.08.15-.1l54.39-11.89c.84-.18,1.57-.69,2.03-1.41.47-.73.62-1.59.44-2.43l-9.77-44.51c-.33-1.51-1.67-2.54-3.16-2.54Z"/>
        </g>
        <g>
          <g>
            <path class="cls-6" d="m45.17,139.01l-.17-6.74c-.05-2.3-1.47-5.22-3.77-5.17-2.3.05-3.21,1.88-3.48,5.14l-1.07,6.46c-.58,3.36-2.85,6.3-4.76,7.53-1.43.92-2.08,2.66-1.59,4.29l3.38,11.11c.51,1.66,1.77,2.99,3.4,3.58,3.52.42,7.09.11,10.48-.92,0,0,8.16-2.46,11.94-3.59,1.76-.53,2.81-2.4,2.23-4.15-.24-.72-.71-1.3-1.3-1.68-.18-.12-.16-.38.04-.46l.33-.14c1.49-.62,2.35-2.25,1.94-3.81-.33-1.24-1.32-2.11-2.47-2.35.85-.87,1.11-2.17.71-3.43-.4-1.24-1.47-1.69-2.49-1.82-.54-.07-.84-.66-.56-1.13.34-.58.5-1.39.21-2.47-.52-1.71-1.96-2.31-3.97-1.93-3.6.68-9.03,1.68-9.03,1.68Z"/>
            <path class="cls-4" d="m40.19,165.66c-1.03,0-2.07-.06-3.1-.19-.02,0-.04,0-.06-.01-1.7-.62-3.04-2.02-3.56-3.75l-3.38-11.11c-.52-1.72.17-3.61,1.7-4.59,1.88-1.21,4.08-4.12,4.64-7.35l1.07-6.46c.2-2.45.81-5.3,3.74-5.36.02,0,.04,0,.06,0,2.52,0,3.92,3.14,3.97,5.43l.16,6.43c1.19-.22,5.64-1.04,8.72-1.62,2.21-.42,3.73.33,4.27,2.11.28,1.04.2,1.94-.24,2.68-.08.14-.09.31-.02.45.07.15.22.25.39.28,1.41.19,2.34.88,2.7,2,.39,1.22.2,2.44-.49,3.36,1.11.38,1.95,1.28,2.26,2.43.44,1.67-.46,3.44-2.09,4.12l-.33.14c.67.43,1.16,1.06,1.41,1.82.3.89.22,1.84-.22,2.69-.45.86-1.24,1.52-2.18,1.8-3.78,1.13-11.94,3.59-11.94,3.59-2.45.74-4.96,1.12-7.49,1.12Zm-3.01-.71c3.49.41,6.97.11,10.34-.91,0,0,8.16-2.46,11.94-3.59.8-.24,1.48-.8,1.86-1.54.37-.72.44-1.53.19-2.28-.21-.64-.62-1.18-1.19-1.55-.17-.11-.26-.3-.24-.49.02-.19.14-.36.32-.43l.33-.14c1.39-.58,2.16-2.09,1.78-3.5-.29-1.1-1.16-1.92-2.27-2.16-.09-.02-.17-.09-.2-.18-.03-.09,0-.19.06-.26.78-.8,1.02-1.98.65-3.16-.3-.93-1.06-1.48-2.27-1.64-.35-.05-.64-.26-.79-.57-.15-.31-.13-.66.04-.96.36-.61.42-1.37.19-2.27-.46-1.52-1.7-2.11-3.66-1.74-3.6.68-9.03,1.68-9.03,1.68-.08.01-.15,0-.21-.05-.06-.05-.1-.12-.1-.2l-.17-6.74c-.04-2.02-1.3-4.92-3.45-4.92-.02,0-.03,0-.05,0-1.98.04-2.94,1.51-3.22,4.9l-1.07,6.48c-.58,3.38-2.89,6.44-4.88,7.71-1.33.85-1.93,2.49-1.48,3.99l3.38,11.11c.48,1.56,1.67,2.83,3.21,3.4Z"/>
          </g>
          <g>
            <rect class="cls-6" x="23.13" y="148.01" width="7.97" height="20.4" rx="1.97" ry="1.97" transform="translate(-45.32 14.96) rotate(-17.1)"/>
            <path class="cls-4" d="m27.6,168.91c-.36,0-.72-.09-1.04-.26-.53-.28-.91-.75-1.09-1.32l-4.84-15.74c-.36-1.18.3-2.43,1.48-2.79l3.86-1.19c.57-.18,1.17-.12,1.7.16.53.28.91.75,1.09,1.32l4.84,15.74c.36,1.18-.3,2.43-1.48,2.79l-3.86,1.19h0c-.22.07-.44.1-.66.1Zm.58-.35h0,0Zm-1.56-20.51c-.17,0-.34.03-.5.08l-3.86,1.19c-.9.28-1.4,1.23-1.13,2.13l4.84,15.74c.13.43.43.79.83,1,.4.21.86.26,1.3.12l3.86-1.19c.9-.28,1.4-1.23,1.13-2.13l-4.84-15.74c-.13-.43-.43-.79-.83-1-.25-.13-.52-.2-.79-.2Z"/>
          </g>
        </g>
      </g>
      <g>
        <g>
          <rect class="cls-7" x="201.95" y="134.3" width="62.26" height="42.97"/>
          <g>
            <path class="cls-4" d="m172.92,162.12c-.07,0-.14-.03-.19-.08-.1-.1-.1-.27,0-.37l50.68-50.65c.1-.1.27-.1.37,0l18.77,18.76,35.28-35.26c.1-.1.27-.1.37,0,.1.1.1.27,0,.37l-35.46,35.45c-.1.1-.27.1-.37,0l-18.77-18.76-50.49,50.46c-.05.05-.12.08-.19.08Z"/>
            <polygon class="cls-4" points="276.99 98.11 276.51 97.88 277.98 94.74 274.84 96.21 274.61 95.73 279.08 93.65 276.99 98.11"/>
          </g>
        </g>
        <g>
          <path class="cls-4" d="m107.39,177.35h-9.85c-.15,0-.26-.12-.26-.26s.12-.26.26-.26h9.85c.15,0,.26.12.26.26s-.12.26-.26.26Z"/>
          <path class="cls-4" d="m91.82,177.35h-23.29c-.15,0-.26-.12-.26-.26s.12-.26.26-.26h23.29c.15,0,.26.12.26.26s-.12.26-.26.26Z"/>
          <path class="cls-4" d="m107.39,185.39h-38.86c-.15,0-.26-.12-.26-.26s.12-.26.26-.26h38.86c.15,0,.26.12.26.26s-.12.26-.26.26Z"/>
          <path class="cls-4" d="m107.39,193.42h-23.24c-.15,0-.26-.12-.26-.26s.12-.26.26-.26h23.24c.15,0,.26.12.26.26s-.12.26-.26.26Z"/>
          <path class="cls-4" d="m78.71,193.42h-10.18c-.15,0-.26-.12-.26-.26s.12-.26.26-.26h10.18c.15,0,.26.12.26.26s-.12.26-.26.26Z"/>
        </g>
        <g>
          <path class="cls-4" d="m225.7,162.17h-10.51c-.15,0-.26-.12-.26-.26s.12-.26.26-.26h10.51c.15,0,.26.12.26.26s-.12.26-.26.26Z"/>
          <path class="cls-4" d="m256.64,162.17h-24.84c-.15,0-.26-.12-.26-.26s.12-.26.26-.26h24.84c.15,0,.26.12.26.26s-.12.26-.26.26Z"/>
          <path class="cls-4" d="m256.64,153.6h-41.45c-.15,0-.26-.12-.26-.26s.12-.26.26-.26h41.45c.15,0,.26.12.26.26s-.12.26-.26.26Z"/>
          <path class="cls-4" d="m239.98,145.02h-24.79c-.15,0-.26-.12-.26-.26s.12-.26.26-.26h24.79c.15,0,.26.12.26.26s-.12.26-.26.26Z"/>
          <path class="cls-4" d="m256.64,145.02h-10.86c-.15,0-.26-.12-.26-.26s.12-.26.26-.26h10.86c.15,0,.26.12.26.26s-.12.26-.26.26Z"/>
        </g>
      </g>
      <g>
        <path class="cls-2" d="m176.45,78.96s10.46-12.07,2.17-19.81c-8.3-7.74-1.68-13.42-9.02-19.45-6.13-5.04-12.45,0-18.4-3.78-7.43-4.72-17.68-3.42-20.21,6.48-2.53,9.91-12.81,1.8-18.76,14.23-4.02,8.39,4.69,14.41-4.51,20.35-10.01,6.47-.18,24.32,13.53,21.07,13.71-3.24,55.21-19.09,55.21-19.09Z"/>
        <polygon class="cls-5" points="180.04 117.95 194.58 194.14 168.18 194.14 154.54 157.09 141.35 194.14 111.76 194.14 128.94 122.41 180.04 117.95"/>
        <g>
          <g>
            <g>
              <path class="cls-6" d="m188.53,56.62c.34,1.86,11.19-.9,16.06,5.63,2.2,2.95,9.88,18.24,5.23,17.06-3.5-.89-35.72-6.75-35.72-6.75l4.06,27.02s45.93,13.66,57.92-1.35c12.04-15.08-21.02-54.73-22.91-56.46-2.75-2.52-5.98-1.24-5.41,1.89,0,0-4.87-2.79-5.68,2.7,0,0-2.89-1.71-3.79,1.08-.56,1.72.7,5.24.7,5.24,0,0-11.32-.92-10.44,3.94Z"/>
              <path class="cls-4" d="m214.22,105.55c-3.52,0-7.39-.25-11.63-.75-12.85-1.52-24.39-4.93-24.51-4.96-.1-.03-.17-.11-.19-.21l-4.06-27.02c-.01-.08.02-.17.08-.23.06-.06.15-.09.23-.07.32.06,32.27,5.88,35.74,6.76.62.16.83-.04.94-.2,1.38-2.07-4.45-13.76-6.45-16.45-3.08-4.13-8.64-4.46-12.32-4.67-2.19-.13-3.63-.21-3.79-1.07-.16-.9.05-1.68.63-2.32,2.03-2.24,8.07-2.06,9.7-1.96-.31-.97-1.05-3.57-.57-5.03.27-.84.74-1.39,1.4-1.64.91-.35,1.93,0,2.44.24.29-1.5.93-2.5,1.9-2.97,1.33-.65,2.9-.12,3.66.22-.07-1.2.4-2.18,1.32-2.69,1.3-.72,3.1-.3,4.59,1.06.97.88,9.65,11.12,16.73,23.29,4.04,6.94,6.74,13.12,8.03,18.37,1.6,6.55.99,11.65-1.82,15.17-3.8,4.76-11.2,7.15-22.07,7.15Zm-35.82-6.18c1.44.42,12.28,3.48,24.26,4.9,11.77,1.4,27.09,1.45,33.21-6.21,6.18-7.74.01-22.18-6.25-32.94-6.93-11.9-15.71-22.32-16.63-23.16-1.32-1.2-2.88-1.59-3.98-.98-.85.47-1.21,1.43-1,2.63.02.1-.02.2-.11.26-.08.06-.2.06-.28.01-.02-.01-2.08-1.17-3.62-.42-.88.43-1.44,1.42-1.67,2.93-.01.09-.07.16-.15.2-.08.04-.17.03-.25-.01-.01,0-1.31-.76-2.33-.37-.5.19-.86.63-1.08,1.31-.52,1.62.68,5.04.7,5.07.03.08.02.18-.04.25-.05.07-.14.11-.23.1-.07,0-7.53-.58-9.66,1.76-.47.52-.63,1.13-.5,1.87.08.45,1.64.54,3.3.64,3.78.22,9.48.55,12.71,4.88,1.91,2.56,8.13,14.57,6.47,17.06-.21.31-.64.64-1.51.42-3.25-.82-31.77-6.03-35.34-6.68l3.98,26.48Z"/>
            </g>
            <g>
              <path class="cls-6" d="m215.96,48.25s-.45,4.14-4.06,2.25c0,0-.54,5.13-4.6,2.52,0,0-.72,3.33-4.15,1.53l12.81-6.3Z"/>
              <path class="cls-4" d="m204.99,55.35c-.59,0-1.25-.19-1.96-.57-.13-.07-.18-.23-.11-.36.07-.13.23-.18.36-.11,1.01.53,1.86.64,2.52.33.97-.45,1.25-1.67,1.25-1.69.02-.08.08-.16.16-.19.08-.03.17-.03.24.02,1.07.69,1.96.87,2.65.54,1.3-.62,1.54-2.84,1.55-2.86,0-.09.06-.16.14-.21.08-.04.17-.04.25,0,.97.51,1.77.6,2.38.27,1.09-.58,1.29-2.3,1.29-2.32.02-.15.14-.25.29-.23.15.02.25.15.23.29,0,.08-.23,2.02-1.57,2.73-.7.37-1.56.34-2.55-.11-.14.73-.57,2.34-1.79,2.92-.8.38-1.76.25-2.87-.39-.17.47-.58,1.31-1.44,1.71-.31.15-.66.22-1.03.22Z"/>
            </g>
            <g>
              <path class="cls-6" d="m209.1,45.64s2.07,2.97,2.8,4.86l-2.8-4.86Z"/>
              <path class="cls-4" d="m211.9,50.76c-.11,0-.21-.06-.25-.17-.7-1.84-2.75-4.78-2.77-4.81-.08-.12-.05-.28.07-.37.12-.08.29-.05.37.07.09.12,2.1,3.02,2.83,4.92.05.14-.02.29-.15.34-.03.01-.06.02-.09.02Z"/>
            </g>
            <g>
              <path class="cls-6" d="m203.42,47.89s2.71,4.32,3.88,5.13l-3.88-5.13Z"/>
              <path class="cls-4" d="m207.3,53.28c-.05,0-.1-.02-.15-.05-1.2-.83-3.84-5.03-3.95-5.21-.08-.12-.04-.29.08-.37.12-.08.29-.04.36.08.03.04,2.69,4.29,3.81,5.06.12.08.15.25.07.37-.05.07-.13.11-.22.11Z"/>
            </g>
          </g>
          <g>
            <path class="cls-6" d="m148.79,72.26s25.49-1.95,40.47,2.02c1.32.35-2.71,11.89-4.77,27.25,2.76,14.16,3.76,35.99-1.75,34.65-26.75-6.53-47.45,11.71-55.93,3.78-1.22-1.14-3.14-18.82-4.73-29.26-7.32-12.29-16.21-18.14-14.9-19.49,11.01-11.35,41.63-18.95,41.63-18.95Z"/>
            <path class="cls-4" d="m131.65,140.76c-2.42,0-3.39-7.15-5-8.66-1.36-1.27-3.39-11.84-4.84-21.32-4.11-6.88-8.68-11.7-11.71-14.9-2.58-2.73-3.88-4.09-3.13-4.86,10.93-11.27,41.45-18.94,41.75-19.02.01,0,.03,0,.04,0,.26-.02,25.71-1.9,40.55,2.02.86.23.47,2.16-.91,8.25-1.11,4.88-2.62,11.57-3.66,19.25,1.64,8.43,2.77,29.57-.66,32.84-.66.63-1.5.83-2.48.59-14.37-3.51-26.88.14-36.93,3.07-5.04,1.47-9.44,2.75-13.03,2.75Zm17.18-68.24c-.96.24-30.77,7.83-41.48,18.87-.39.41,1.24,2.13,3.14,4.13,3.05,3.22,7.66,8.09,11.8,15.04.02.03.03.06.03.1,1.77,11.64-.25,39.32.78,40.28,3.79,3.54,10.33,1.64,18.61-.78,10.11-2.95,22.69-6.61,37.21-3.07.81.2,6.46.96,7,.45,2.38-2.27,5.33-28.61.45-45.93,0-.03.45-.88.45-.91,1.04-7.72,2.98-15.11,4.09-20.01.85-3.74-1.38-5.81-1.74-6.18-14.55-3.85-39.46-2.07-40.34-2Z"/>
          </g>
          <g>
            <path class="cls-6" d="m106.89,92.01c-12.3,10.7-25.87,28.48-17.05,41.7,12.18,18.24,50.34-5.22,56.43-23.46,0,0,1.62-5.13-1.89-4.46,0,0,1.49-4.19-2.84-3.51,0,0,.47-4.86-3.86-2.57,0,0,7.78-8.38,4.8-10.54-2.23-1.62-4.67,4.46-11.32,10.4-2.96,2.64-18.04,15.22-26.34,15.94l2.07-23.5Z"/>
            <path class="cls-4" d="m103.3,140.57c-6.03,0-10.72-2.29-13.67-6.71-8.46-12.66,3.29-30.02,17.1-42.04.11-.1.28-.08.37.03.1.11.08.28-.03.37-13.64,11.87-25.27,28.97-17,41.35,3.4,5.09,9.19,7.24,16.75,6.23,7.37-.99,16.08-4.97,23.89-10.91,7.73-5.89,13.31-12.71,15.32-18.72.24-.76.7-2.93-.06-3.79-.31-.35-.83-.46-1.53-.33-.09.02-.19-.02-.25-.09-.06-.07-.08-.17-.05-.26,0-.02.61-1.75-.15-2.66-.43-.52-1.24-.68-2.4-.5-.08.01-.16-.01-.22-.07-.06-.06-.09-.14-.08-.22,0-.02.18-2.01-.81-2.67-.58-.39-1.47-.26-2.66.37-.11.06-.26.03-.33-.07-.08-.1-.07-.25.02-.34.06-.06,5.69-6.16,5.4-9.11-.04-.45-.23-.79-.56-1.03-1.05-.77-2.23.58-4.56,3.44-1.62,1.99-3.65,4.46-6.43,6.95-.17.15-17.25,15.2-26.5,16.01-.15.01-.27-.1-.29-.24-.01-.15.1-.27.24-.29,9.07-.79,26.02-15.72,26.19-15.87,2.75-2.46,4.76-4.91,6.37-6.89,2.27-2.78,3.78-4.63,5.28-3.53.46.33.72.8.78,1.41.24,2.5-3.16,6.78-4.75,8.64.86-.27,1.56-.22,2.09.14.98.66,1.07,2.16,1.06,2.84,1.2-.13,2.06.12,2.57.73.7.84.51,2.12.35,2.77.69-.05,1.24.13,1.61.55,1.12,1.26.21,4.18.17,4.3-2.04,6.11-7.69,13.02-15.5,18.97-7.88,6-16.68,10.02-24.14,11.02-1.24.17-2.44.25-3.59.25Z"/>
          </g>
        </g>
        <g>
          <g>
            <path class="cls-6" d="m143.7,60.53l1.04,14.5s5.07,5.38,10.18,3.18c3.5-1.51,1.6-4.75,1.6-4.75l-2.76-12.44-10.06-.49Z"/>
            <path class="cls-4" d="m152.37,79c-4.2,0-7.78-3.74-7.82-3.79-.04-.04-.07-.1-.07-.16l-1.04-14.5c0-.08.02-.15.07-.2.05-.05.13-.08.2-.08l10.06.49c.12,0,.22.09.25.21l2.75,12.4c.14.25.84,1.62.38,3.01-.29.9-1.01,1.6-2.12,2.08-.89.38-1.79.54-2.65.54Zm-7.37-4.09c.6.6,5.24,5.03,9.82,3.06.97-.42,1.58-1.01,1.83-1.76.42-1.27-.35-2.6-.36-2.61-.01-.02-.02-.05-.03-.08l-2.72-12.24-9.56-.47,1.01,14.1Z"/>
          </g>
          <g>
            <g>
              <path class="cls-6" d="m160.37,54.12c.25,2.36.1,4.81-.8,7-.9,2.18-2.6,4.07-4.76,4.78-1.87.61-3.94.3-5.68-.62-1.74-.91-3.18-2.38-4.33-4.04-1.97.59-4.25-.4-5.24-2.28-.57-1.08-.7-2.48-.11-3.56.59-1.08,2.01-1.65,3.04-1.05.59.34.98.99,1.57,1.3.67.35,1.53.18,2.18-.21s1.09-1,1.51-1.66c.91-1.41.54-4.36.17-6.81.47.09,3.86,1.52,7.36,1.1,2.21-.29,2.76-1.09,3.19-1.06.43.51.89,2.08,1.06,2.77.36,1.43.67,2.88.83,4.36Z"/>
              <path class="cls-4" d="m152.79,66.48c-1.26,0-2.57-.33-3.78-.96-1.59-.83-3.04-2.17-4.32-3.97-2.03.51-4.35-.55-5.36-2.46-.66-1.27-.7-2.73-.1-3.81.36-.64.99-1.14,1.7-1.34.6-.17,1.21-.1,1.7.19.31.18.56.43.81.67.25.25.48.48.76.62.51.27,1.27.19,1.91-.21.57-.35.97-.86,1.43-1.58.84-1.31.51-4.11.13-6.63-.01-.09.02-.17.08-.23.06-.06.15-.09.23-.07.09.02.24.07.48.15,1.07.35,3.92,1.29,6.8.95,1.39-.18,2.08-.56,2.54-.82.27-.15.48-.26.7-.25.07,0,.14.04.19.09.54.65,1.06,2.65,1.11,2.87.43,1.71.7,3.11.83,4.4.29,2.71.01,5.1-.82,7.13-.98,2.4-2.82,4.24-4.92,4.93-.67.22-1.38.33-2.11.33Zm-7.99-5.5c.09,0,.17.04.22.11,1.25,1.81,2.67,3.14,4.23,3.96,1.79.94,3.79,1.15,5.48.6,1.95-.64,3.67-2.37,4.59-4.63.8-1.94,1.06-4.25.78-6.87-.13-1.26-.39-2.64-.82-4.32-.23-.92-.61-2.05-.92-2.54-.08.03-.19.09-.31.16-.46.26-1.23.68-2.73.88-2.99.36-5.93-.61-7.03-.97-.01,0-.03,0-.04-.01.37,2.5.63,5.19-.27,6.58-.39.61-.87,1.3-1.6,1.74-.64.39-1.62.66-2.44.22-.35-.18-.62-.45-.88-.72-.23-.23-.45-.45-.7-.59-.37-.22-.83-.26-1.29-.14-.58.16-1.09.56-1.38,1.08-.51.92-.46,2.22.11,3.31.92,1.76,3.09,2.7,4.92,2.15.03,0,.05-.01.08-.01Z"/>
            </g>
            <g>
              <path class="cls-6" d="m141.96,57.26c1.13.02,2.22.77,2.63,1.83l-2.63-1.83Z"/>
              <path class="cls-4" d="m144.6,59.35c-.11,0-.21-.06-.25-.17-.38-.96-1.36-1.64-2.39-1.66-.15,0-.26-.12-.26-.27,0-.15.11-.26.27-.26,1.24.02,2.42.84,2.88,2,.05.14-.01.29-.15.34-.03.01-.06.02-.1.02Z"/>
            </g>
          </g>
        </g>
      </g>
      <g>
        <g>
          <path class="cls-6" d="m225.38,231.84l59.65,26.71,7.59,15.33,28.08-62.49c.93-2.07,0-4.49-2.07-5.42l-67.96-30.43c-2.07-.93-4.5,0-5.43,2.06l-21.94,48.82c-.93,2.07,0,4.49,2.07,5.42Z"/>
          <path class="cls-4" d="m292.63,274.22c-.13,0-.25-.07-.3-.19l-7.54-15.22-59.54-26.66c-1.08-.49-1.91-1.36-2.34-2.47-.42-1.11-.39-2.31.1-3.39l21.94-48.82c1-2.23,3.64-3.23,5.87-2.23l67.96,30.43c1.08.49,1.91,1.36,2.34,2.47.42,1.11.39,2.31-.1,3.39l-28.08,62.49c-.05.12-.17.2-.3.2h0Zm-43.62-98.7c-1.44,0-2.82.83-3.45,2.22l-21.94,48.82c-.41.92-.44,1.94-.08,2.88.36.94,1.06,1.69,1.98,2.1l59.65,26.71c.07.03.13.09.16.16l7.28,14.69,27.79-61.84c.41-.92.44-1.94.08-2.88-.36-.94-1.06-1.69-1.98-2.1l-67.96-30.43c-.5-.22-1.02-.33-1.54-.33Z"/>
        </g>
        <g>
          <g>
            <path class="cls-6" d="m268,208.23l1.4-7.58c.47-2.59,2.59-5.63,5.18-5.16,2.59.47,3.29,2.7,3.01,6.43l.05,7.48c.05,3.89,2.08,7.62,4.02,9.35,1.45,1.29,1.87,3.38,1.02,5.13l-5.81,11.93c-.87,1.78-2.53,3.06-4.48,3.43-4.05-.15-8.02-1.15-11.66-2.92,0,0-8.76-4.24-12.83-6.19-1.9-.91-2.74-3.22-1.77-5.08.4-.77,1.03-1.34,1.76-1.67.22-.1.25-.4.04-.53l-.35-.22c-1.57-.97-2.25-2.96-1.5-4.65.59-1.34,1.86-2.14,3.21-2.21-.8-1.13-.87-2.64-.19-4,.67-1.32,1.96-1.64,3.13-1.61.62.02,1.06-.59.84-1.17-.28-.72-.31-1.66.2-2.82.9-1.84,2.62-2.25,4.83-1.47,3.94,1.41,9.89,3.52,9.89,3.52Z"/>
            <path class="cls-4" d="m272.4,239.58s0,0-.01,0c-4.12-.16-8.09-1.15-11.8-2.95,0,0-8.76-4.24-12.83-6.19-1.01-.49-1.8-1.38-2.15-2.44-.35-1.04-.27-2.14.23-3.1.41-.79,1.05-1.41,1.86-1.79l-.28-.18c-1.74-1.07-2.44-3.25-1.63-5.07.55-1.24,1.66-2.1,2.96-2.35-.6-1.16-.58-2.58.07-3.88.61-1.22,1.81-1.84,3.44-1.8.18,0,.35-.08.46-.23.1-.14.12-.32.06-.48-.36-.92-.29-1.96.21-3.08.94-1.94,2.81-2.52,5.25-1.65,3.35,1.2,8.15,2.9,9.52,3.38l1.33-7.19c.47-2.61,2.68-5.96,5.57-5.43,3.32.6,3.5,3.94,3.28,6.78l.05,7.46c.05,3.73,2,7.4,3.91,9.1,1.56,1.39,2.01,3.66,1.1,5.53l-5.81,11.93c-.91,1.87-2.67,3.22-4.72,3.61-.02,0-.04,0-.06,0Zm-20.29-29.07c-1.3,0-2.21.48-2.68,1.43-.63,1.25-.57,2.62.16,3.65.07.1.08.23.03.34-.05.11-.16.18-.29.19-1.28.06-2.4.83-2.92,2.01-.67,1.51-.08,3.33,1.37,4.23l.35.22c.2.12.31.34.3.58-.02.24-.16.44-.38.54-.7.31-1.25.84-1.6,1.52-.41.8-.48,1.71-.19,2.58.3.89.96,1.64,1.81,2.05,4.07,1.95,12.83,6.19,12.83,6.19,3.61,1.75,7.48,2.72,11.49,2.88,1.82-.36,3.39-1.57,4.2-3.24l5.81-11.93c.78-1.59.39-3.54-.95-4.73-2.01-1.8-4.08-5.67-4.13-9.6l-.05-7.49c.29-3.88-.53-5.7-2.73-6.1-2.43-.44-4.38,2.61-4.79,4.89l-1.4,7.58c-.02.1-.08.18-.16.23-.08.05-.19.06-.28.03,0,0-5.95-2.11-9.89-3.52-2.13-.76-3.62-.33-4.41,1.3-.42.95-.48,1.81-.19,2.55.15.37.1.79-.13,1.12-.23.33-.62.53-1.03.52-.05,0-.09,0-.14,0Z"/>
          </g>
          <g>
            <rect class="cls-6" x="280.38" y="221.49" width="9.11" height="23.32" rx="2.25" ry="2.25" transform="translate(438.1 567.94) rotate(-153.87)"/>
            <path class="cls-4" d="m282.86,245.2c-.38,0-.77-.08-1.13-.26l-4.15-2.03c-1.28-.63-1.81-2.18-1.18-3.46l8.29-16.9c.63-1.28,2.18-1.81,3.46-1.18l4.15,2.03c1.28.63,1.81,2.18,1.18,3.46l-8.29,16.9c-.45.91-1.37,1.45-2.32,1.45Zm-.84-.87c.95.46,2.09.07,2.56-.87l8.29-16.9c.46-.95.07-2.09-.87-2.56l-4.15-2.03c-.95-.46-2.09-.07-2.56.87l-8.29,16.9c-.46.95-.07,2.09.87,2.56l4.15,2.03Z"/>
          </g>
        </g>
      </g>
      <g>
        <polygon class="cls-5" points="219.5 71.72 214.02 74.6 215.07 68.51 210.64 64.2 216.76 63.31 219.5 57.77 222.24 63.31 228.36 64.2 223.93 68.51 224.98 74.6 219.5 71.72"/>
        <polygon class="cls-5" points="243.52 71.72 238.04 74.6 239.08 68.51 234.65 64.2 240.78 63.31 243.52 57.77 246.25 63.31 252.38 64.2 247.95 68.51 248.99 74.6 243.52 71.72"/>
        <polygon class="cls-5" points="267.53 71.72 262.05 74.6 263.1 68.51 258.67 64.2 264.79 63.31 267.53 57.77 270.27 63.31 276.4 64.2 271.96 68.51 273.01 74.6 267.53 71.72"/>
        <polygon class="cls-5" points="291.55 71.72 286.07 74.6 287.11 68.51 282.68 64.2 288.81 63.31 291.55 57.77 294.29 63.31 300.41 64.2 295.98 68.51 297.02 74.6 291.55 71.72"/>
        <polygon class="cls-5" points="315.56 71.72 310.08 74.6 311.13 68.51 306.7 64.2 312.82 63.31 315.56 57.77 318.3 63.31 324.43 64.2 319.99 68.51 321.04 74.6 315.56 71.72"/>
      </g>
      <g>
        <path class="cls-4" d="m134.96,236.9h-28.41c-.15,0-.26-.12-.26-.26s.12-.26.26-.26h28.41c.15,0,.26.12.26.26s-.12.26-.26.26Z"/>
        <path class="cls-4" d="m90.05,236.9H22.87c-.15,0-.26-.12-.26-.26s.12-.26.26-.26h67.19c.15,0,.26.12.26.26s-.12.26-.26.26Z"/>
        <path class="cls-4" d="m156.21,244.94H22.87c-.15,0-.26-.12-.26-.26s.12-.26.26-.26h133.34c.15,0,.26.12.26.26s-.12.26-.26.26Z"/>
        <path class="cls-4" d="m134.96,252.98h-67.04c-.15,0-.26-.12-.26-.26s.12-.26.26-.26h67.04c.15,0,.26.12.26.26s-.12.26-.26.26Z"/>
        <path class="cls-4" d="m52.24,252.98h-29.37c-.15,0-.26-.12-.26-.26s.12-.26.26-.26h29.37c.15,0,.26.12.26.26s-.12.26-.26.26Z"/>
      </g>
    </g>
    <path class="cls-1" d="m115.53,115.17l-.77-1.06c.76-.56,18.73-13.58,27.82-11.51,10.46,2.39,23.86-1.69,27.27-3.96,6.52-4.33,19.43,2.48,19.98,2.77l-.62,1.15c-.13-.07-12.77-6.73-18.64-2.83-3.27,2.17-16.92,6.74-28.28,4.14-8.51-1.94-26.57,11.16-26.75,11.29Z"/>
    <path class="cls-1" d="m119.95,119.11l-.77-1.06c.51-.37,12.7-9.09,21.48-9.38l.04,1.31c-8.38.28-20.64,9.05-20.76,9.14Z"/>
    <path class="cls-1" d="m157.07,111.18c-4.08,0-10.28-.77-10.58-.81l.16-1.3c.08.01,8.27,1.03,11.93.75,3.51-.27,9.87-1.1,12.95-3.62,3.39-2.78,11.49-2.88,16.45,1.16l-.82,1.02c-4.38-3.56-11.8-3.61-14.8-1.16-3.18,2.6-9.19,3.56-13.67,3.91-.48.04-1.03.05-1.62.05Z"/>
    <path class="cls-1" d="m160.11,120.7c-6,0-15.76-1.88-16.2-1.96l.25-1.28c.11.02,11.4,2.2,17.05,1.92,3.46-.17,7.18-2.15,10.47-3.9,2.09-1.11,4.06-2.16,5.86-2.72,4.82-1.51,10.1,1.08,10.33,1.2l-.58,1.17s-5.03-2.47-9.35-1.12c-1.68.53-3.6,1.55-5.64,2.63-3.4,1.81-7.26,3.87-11.02,4.05-.37.02-.76.03-1.16.03Z"/>
    <path class="cls-4" d="m131.58,163.42l-1.01-13.87s23.58-11.3,39.2-10,19.53,3.47,19.53,3.47l-2.6,15.19-55.12,5.21Z"/>
    <g>
      <path class="cls-3" d="m75.91,61.19c.13-.13.25-.27.36-.41,1.57.95,3.26,1.64,5,2.07-.02.18-.04.36-.04.54,0,2.45,1.99,4.44,4.44,4.44,2.45,0,4.44-1.99,4.44-4.44,0-.18-.01-.36-.04-.54,1.74-.43,3.42-1.12,5-2.07.11.14.23.28.36.41,1.74,1.74,4.55,1.74,6.29,0s1.74-4.55,0-6.29c-.13-.13-.27-.25-.41-.36.95-1.57,1.64-3.26,2.07-5,.18.02.36.04.54.04,2.45,0,4.44-1.99,4.44-4.44,0-2.45-1.99-4.44-4.44-4.44-.18,0-.36.01-.54.04-.43-1.74-1.12-3.42-2.07-5,.14-.11.28-.23.41-.36,1.74-1.74,1.74-4.55,0-6.29s-4.55-1.74-6.29,0c-.13.13-.25.27-.36.41-1.57-.95-3.26-1.64-5-2.07.02-.18.04-.36.04-.54,0-2.45-1.99-4.44-4.44-4.44-2.45,0-4.44,1.99-4.44,4.44,0,.18.01.36.04.54-1.74.43-3.42,1.12-5,2.07-.11-.14-.23-.28-.36-.41-1.74-1.74-4.55-1.74-6.29,0s-1.74,4.55,0,6.29c.13.13.27.25.41.36-.95,1.57-1.64,3.26-2.07,5-.18-.02-.36-.04-.54-.04-2.45,0-4.44,1.99-4.44,4.44,0,2.45,1.99,4.44,4.44,4.44.18,0,.36-.01.54-.04.43,1.74,1.12,3.42,2.07,5-.14.11-.28.23-.41.36-1.74,1.74-1.74,4.55,0,6.29s4.55,1.74,6.29,0Zm3.93-21.88c3.22-3.22,8.45-3.22,11.67,0s3.22,8.45,0,11.67c-3.22,3.22-8.45,3.22-11.67,0s-3.22-8.45,0-11.67Z"/>
      <g>
        <path class="cls-6" d="m51.22,22.13c.07-.07.13-.15.2-.22.86.52,1.79.9,2.74,1.14-.01.1-.02.2-.02.3,0,1.35,1.09,2.44,2.44,2.44,1.35,0,2.44-1.09,2.44-2.44,0-.1,0-.2-.02-.3.95-.24,1.88-.62,2.74-1.14.06.08.12.15.2.22.95.95,2.49.95,3.45,0s.95-2.49,0-3.45c-.07-.07-.15-.13-.22-.2.52-.86.9-1.79,1.14-2.74.1.01.2.02.3.02,1.35,0,2.44-1.09,2.44-2.44,0-1.35-1.09-2.44-2.44-2.44-.1,0-.2,0-.3.02-.24-.95-.62-1.88-1.14-2.74.08-.06.15-.12.22-.2.95-.95.95-2.49,0-3.45s-2.49-.95-3.45,0c-.07.07-.13.15-.2.22-.86-.52-1.79-.9-2.74-1.14.01-.1.02-.2.02-.3,0-1.35-1.09-2.44-2.44-2.44-1.35,0-2.44,1.09-2.44,2.44,0,.1,0,.2.02.3-.95.24-1.88.62-2.74,1.14-.06-.08-.12-.15-.2-.22-.95-.95-2.49-.95-3.45,0s-.95,2.49,0,3.45c.07.07.15.13.22.2-.52.86-.9,1.79-1.14,2.74-.1-.01-.2-.02-.3-.02-1.35,0-2.44,1.09-2.44,2.44,0,1.35,1.09,2.44,2.44,2.44.1,0,.2,0,.3-.02.24.95.62,1.88,1.14,2.74-.08.06-.15.12-.22.2-.95.95-.95,2.49,0,3.45s2.49.95,3.45,0Zm2.15-12c1.77-1.77,4.63-1.77,6.4,0s1.77,4.63,0,6.4-4.63,1.77-6.4,0-1.77-4.63,0-6.4Z"/>
        <path class="cls-4" d="m47.65,4.41c1.02-1.02,2.67-1.02,3.69,0,.04.04.07.08.11.12.79-.46,1.63-.81,2.51-1.04,0-.06,0-.11,0-.17,0-1.44,1.17-2.61,2.61-2.61,1.44,0,2.61,1.17,2.61,2.61,0,.05,0,.11,0,.16.88.23,1.73.58,2.51,1.04.04-.04.07-.08.11-.12,1.02-1.02,2.67-1.02,3.69,0s1.02,2.67,0,3.69c-.04.04-.08.07-.12.11.46.79.81,1.63,1.04,2.51.06,0,.11,0,.16,0,1.44,0,2.61,1.17,2.61,2.61,0,1.44-1.17,2.61-2.61,2.61-.05,0-.11,0-.16,0-.23.88-.58,1.73-1.04,2.51.04.04.08.08.12.11,1.02,1.02,1.02,2.67,0,3.69s-2.67,1.02-3.69,0c-.04-.04-.07-.08-.11-.12-.79.46-1.63.81-2.51,1.04,0,.06,0,.11,0,.17,0,1.44-1.17,2.61-2.61,2.61-.7,0-1.35-.27-1.85-.76s-.76-1.15-.76-1.85c0-.05,0-.11,0-.16-.88-.23-1.73-.58-2.51-1.04-.04.04-.07.08-.11.12-1.02,1.02-2.67,1.02-3.69,0s-1.02-2.67,0-3.69c.04-.04.08-.07.12-.11-.46-.79-.81-1.63-1.04-2.51-.06,0-.11,0-.16,0-.7,0-1.35-.27-1.85-.76s-.76-1.15-.76-1.85c0-1.44,1.17-2.61,2.61-2.61.05,0,.11,0,.16,0,.23-.88.58-1.73,1.04-2.51-.04-.04-.08-.08-.12-.11-1.02-1.02-1.02-2.67,0-3.69Zm6.63-.67s-.05.04-.08.05c-.95.24-1.85.61-2.69,1.12-.07.05-.17.03-.23-.04-.06-.08-.12-.15-.18-.21-.88-.88-2.32-.88-3.2,0s-.88,2.32,0,3.2c.06.06.13.12.21.18.07.05.09.15.04.23-.51.84-.88,1.74-1.12,2.69-.02.08-.1.14-.19.13-.1-.01-.19-.02-.27-.02-1.25,0-2.26,1.02-2.26,2.26,0,.6.24,1.17.66,1.6s1,.66,1.6.66c.08,0,.17,0,.27-.02.09-.01.17.05.19.13.23.95.61,1.85,1.12,2.69.05.07.03.17-.04.23-.08.06-.15.12-.21.18-.88.88-.88,2.32,0,3.2s2.32.88,3.2,0c.06-.06.12-.12.18-.21.05-.07.15-.09.23-.04.84.51,1.74.88,2.69,1.12.08.02.14.1.13.19-.01.1-.02.19-.02.27,0,.6.24,1.17.66,1.6s1,.66,1.6.66c1.25,0,2.26-1.02,2.26-2.26,0-.08,0-.17-.02-.27-.01-.09.05-.17.13-.19.95-.23,1.85-.61,2.69-1.12.07-.04.17-.03.23.04.06.08.12.15.18.21.88.88,2.32.88,3.2,0s.88-2.32,0-3.2c-.06-.06-.13-.12-.21-.18-.07-.05-.09-.15-.04-.23.51-.84.88-1.74,1.12-2.69.02-.08.1-.14.19-.13.1.01.19.02.27.02,1.25,0,2.26-1.02,2.26-2.26,0-1.25-1.02-2.26-2.26-2.26-.08,0-.17,0-.27.02-.09.01-.17-.05-.19-.13-.24-.95-.61-1.85-1.12-2.69-.05-.07-.03-.17.04-.23.08-.06.15-.12.21-.18.88-.88.88-2.32,0-3.2s-2.32-.88-3.2,0c-.06.06-.12.12-.18.21-.05.07-.15.09-.23.04-.84-.51-1.74-.88-2.69-1.12-.08-.02-.14-.1-.13-.19.01-.1.02-.19.02-.27,0-1.25-1.02-2.26-2.26-2.26s-2.26,1.02-2.26,2.26,0,.17.02.27c0,.05-.01.11-.05.14Zm-1.03,6.27c1.83-1.83,4.81-1.83,6.64,0s1.83,4.81,0,6.64-4.81,1.83-6.64,0-1.83-4.81,0-6.64Zm6.4,6.4c1.7-1.7,1.7-4.46,0-6.16s-4.46-1.7-6.16,0-1.7,4.46,0,6.16,4.46,1.7,6.16,0Z"/>
      </g>
    </g>
  </g>
</svg>